<svg width="2557" height="1407" xmlns="http://www.w3.org/2000/svg" xmlns:xlink="http://www.w3.org/1999/xlink" xml:space="preserve" overflow="hidden"><defs><clipPath id="clip0"><rect x="3506" y="174" width="2557" height="1407"/></clipPath><clipPath id="clip1"><rect x="3508" y="176" width="2552" height="1402"/></clipPath><clipPath id="clip2"><rect x="3508" y="176" width="2552" height="1402"/></clipPath><clipPath id="clip3"><rect x="3725" y="346" width="2288" height="915"/></clipPath><clipPath id="clip4"><rect x="3725" y="346" width="2288" height="915"/></clipPath><clipPath id="clip5"><rect x="3508" y="176" width="2552" height="1402"/></clipPath><clipPath id="clip6"><rect x="3508" y="176" width="2552" height="1402"/></clipPath><clipPath id="clip7"><rect x="3508" y="176" width="2552" height="1402"/></clipPath><clipPath id="clip8"><rect x="3508" y="176" width="2552" height="1402"/></clipPath><clipPath id="clip9"><rect x="3508" y="176" width="2552" height="1402"/></clipPath><clipPath id="clip10"><rect x="3508" y="176" width="2552" height="1402"/></clipPath><clipPath id="clip11"><rect x="3508" y="176" width="2552" height="1402"/></clipPath><clipPath id="clip12"><rect x="3508" y="176" width="2552" height="1402"/></clipPath><clipPath id="clip13"><rect x="3508" y="176" width="2552" height="1402"/></clipPath><clipPath id="clip14"><rect x="3508" y="176" width="2552" height="1402"/></clipPath><clipPath id="clip15"><rect x="3508" y="176" width="2552" height="1402"/></clipPath><clipPath id="clip16"><rect x="3508" y="176" width="2552" height="1402"/></clipPath><clipPath id="clip17"><rect x="3508" y="176" width="2552" height="1402"/></clipPath><clipPath id="clip18"><rect x="3508" y="176" width="2552" height="1402"/></clipPath><clipPath id="clip19"><rect x="3508" y="176" width="2552" height="1402"/></clipPath><clipPath id="clip20"><rect x="3508" y="176" width="2552" height="1402"/></clipPath><clipPath id="clip21"><rect x="3508" y="176" width="2552" height="1402"/></clipPath><clipPath id="clip22"><rect x="3508" y="176" width="2552" height="1402"/></clipPath><clipPath id="clip23"><rect x="3508" y="176" width="2552" height="1402"/></clipPath><clipPath id="clip24"><rect x="3508" y="176" width="2552" height="1402"/></clipPath><clipPath id="clip25"><rect x="3508" y="176" width="2552" height="1402"/></clipPath><clipPath id="clip26"><rect x="3508" y="176" width="2552" height="1402"/></clipPath><clipPath id="clip27"><rect x="3508" y="176" width="2552" height="1402"/></clipPath><clipPath id="clip28"><rect x="3508" y="176" width="2552" height="1402"/></clipPath><clipPath id="clip29"><rect x="3508" y="176" width="2552" height="1402"/></clipPath><clipPath id="clip30"><rect x="3508" y="176" width="2552" height="1402"/></clipPath><clipPath id="clip31"><rect x="3508" y="176" width="2552" height="1402"/></clipPath><clipPath id="clip32"><rect x="3508" y="176" width="2552" height="1402"/></clipPath><clipPath id="clip33"><rect x="3508" y="176" width="2552" height="1402"/></clipPath><clipPath id="clip34"><rect x="3508" y="176" width="2552" height="1402"/></clipPath><clipPath id="clip35"><rect x="3508" y="176" width="2552" height="1402"/></clipPath><clipPath id="clip36"><rect x="3508" y="176" width="2552" height="1402"/></clipPath><clipPath id="clip37"><rect x="3508" y="176" width="2552" height="1402"/></clipPath><clipPath id="clip38"><rect x="3508" y="176" width="2552" height="1402"/></clipPath><clipPath id="clip39"><rect x="3508" y="176" width="2552" height="1402"/></clipPath><clipPath id="clip40"><rect x="3508" y="176" width="2552" height="1402"/></clipPath><clipPath id="clip41"><rect x="3508" y="176" width="2552" height="1402"/></clipPath><clipPath id="clip42"><rect x="3508" y="176" width="2552" height="1402"/></clipPath><clipPath id="clip43"><rect x="3508" y="176" width="2552" height="1402"/></clipPath><clipPath id="clip44"><rect x="3508" y="176" width="2552" height="1402"/></clipPath><clipPath id="clip45"><rect x="3508" y="176" width="2552" height="1402"/></clipPath><clipPath id="clip46"><rect x="3508" y="176" width="2552" height="1402"/></clipPath><clipPath id="clip47"><rect x="3508" y="176" width="2552" height="1402"/></clipPath><clipPath id="clip48"><rect x="3508" y="176" width="2552" height="1402"/></clipPath><clipPath id="clip49"><rect x="3508" y="176" width="2552" height="1402"/></clipPath><clipPath id="clip50"><rect x="3508" y="176" width="2552" height="1402"/></clipPath><clipPath id="clip51"><rect x="3508" y="176" width="2552" height="1402"/></clipPath><clipPath id="clip52"><rect x="3508" y="176" width="2552" height="1402"/></clipPath><clipPath id="clip53"><rect x="3508" y="176" width="2552" height="1402"/></clipPath><clipPath id="clip54"><rect x="3508" y="176" width="2552" height="1402"/></clipPath><clipPath id="clip55"><rect x="3508" y="176" width="2552" height="1402"/></clipPath><clipPath id="clip56"><rect x="3508" y="176" width="2552" height="1402"/></clipPath><clipPath id="clip57"><rect x="3508" y="176" width="2552" height="1402"/></clipPath><clipPath id="clip58"><rect x="3508" y="176" width="2552" height="1402"/></clipPath><clipPath id="clip59"><rect x="3508" y="176" width="2552" height="1402"/></clipPath><clipPath id="clip60"><rect x="3508" y="176" width="2552" height="1402"/></clipPath><clipPath id="clip61"><rect x="3508" y="176" width="2552" height="1402"/></clipPath><clipPath id="clip62"><rect x="3508" y="176" width="2552" height="1402"/></clipPath><clipPath id="clip63"><rect x="3508" y="176" width="2552" height="1402"/></clipPath><clipPath id="clip64"><rect x="3508" y="176" width="2552" height="1402"/></clipPath><clipPath id="clip65"><rect x="3508" y="176" width="2552" height="1402"/></clipPath><clipPath id="clip66"><rect x="3508" y="176" width="2552" height="1402"/></clipPath><clipPath id="clip67"><rect x="3508" y="176" width="2552" height="1402"/></clipPath></defs><g clip-path="url(#clip0)" transform="translate(-3506 -174)"><rect x="3509" y="176" width="2551" height="1403" fill="#FFFFFF" fill-opacity="1"/><g clip-path="url(#clip1)"><path d="M3725.5 1166.54 6009.5 1166.54M3725.5 1075.54 6009.5 1075.54M3725.5 984.532 6009.5 984.532M3725.5 893.529 6009.5 893.529M3725.5 802.526 6009.5 802.526M3725.5 710.523 6009.5 710.523M3725.5 619.521 6009.5 619.521M3725.5 528.518 6009.5 528.518M3725.5 437.515 6009.5 437.515M3725.5 346.5 6009.5 346.5" stroke="#D9D9D9" stroke-width="3.4375" stroke-linecap="butt" stroke-linejoin="round" stroke-miterlimit="10" stroke-opacity="1" fill="none" fill-rule="nonzero"/></g><g clip-path="url(#clip2)"><path d="M3725.5 1257.5 6009.5 1257.5" stroke="#D9D9D9" stroke-width="3.4375" stroke-linecap="butt" stroke-linejoin="round" stroke-miterlimit="10" stroke-opacity="1" fill="none" fill-rule="evenodd"/></g><g clip-path="url(#clip3)"><path d="M3727 1097.04 3730.12 1250.04 3732.12 1181.04 3735.12 1252.04 3737.12 1253.04 3740.12 1258 3742.12 1258 3745.12 1258.04 3748.12 1257.04 3750.12 1222.04 3753.12 1257.04 3755.12 1249.04 3758.12 1258 3760.12 1258.04 3763.12 1258 3766.12 1258 3768.12 1258 3771.12 1256.04 3773.12 1258 3776.12 1256.04 3778.12 1249.04 3781.12 1258 3784.12 1258 3786.12 1258 3789.12 1258 3791.12 1258 3794.12 1258 3796.12 1258.04 3799.12 1258 3802.12 1258 3804.12 1258 3807.12 1258 3809.12 1256.04 3812.13 1258 3814.13 1258 3817.13 1258 3820.13 1258.04 3822.13 1254.04 3825.13 1258 3827.13 1248.04 3830.13 1258 3832.13 1256.04 3835.13 1247.04 3838.13 1255.04 3840.13 1258.04 3843.13 1258 3845.13 1258 3848.13 1258 3850.13 1258 3853.13 1257.04 3855.13 1258 3858.13 1258 3861.13 1257.04 3863.13 1258 3866.13 1258 3868.13 1257.04 3871.13 1258 3873.13 1258 3876.13 1258 3879.13 1258 3881.13 1258 3884.13 1258 3886.13 1258 3889.13 1258 3891.13 1258 3894.13 1258 3897.13 1258 3899.13 1258 3902.13 1254.04 3904.13 1258 3907.13 1258 3909.13 1258 3912.13 1258 3915.13 1258 3917.13 1258 3920.13 1257.04 3922.13 1258 3925.13 1257.04 3927.13 1258.04 3930.13 1258 3933.13 1258 3935.13 1258 3938.13 1258 3940.13 1258 3943.13 1258 3945.13 1242.04 3948.13 1258.04 3951.13 1258 3953.13 1258 3956.13 1257.04 3958.13 1258 3961.13 1258 3963.13 1258 3966.13 1258 3969.13 1256.04 3971.13 1258 3974.13 1258 3976.13 1258 3979.13 1258 3981.13 1258 3984.13 1258 3987.13 1258 3989.13 1257.04 3992.13 1258 3994.13 1258 3997.13 1258 3999.13 1258.04 4002.13 1258 4004.13 1258 4007.13 1258 4010.13 1258 4012.13 1258 4015.13 1258 4017.13 1258 4020.13 1258 4022.13 1258 4025.13 1258.04 4028.13 1258 4030.13 1258 4033.13 1258 4035.13 1258 4038.13 1258 4040.13 1258 4043.13 1252.04 4046.13 1258 4048.13 1257.04 4051.13 1258 4053.13 1258 4056.13 1258 4058.13 1258 4061.13 1258 4064.13 1258 4066.13 1258 4069.13 1246.04 4071.13 1258.04 4074.13 1258 4076.13 1258 4079.13 1258 4082.13 1247.04 4084.13 1258 4087.13 1258 4089.13 1258 4092.13 1258 4094.13 1258 4097.13 1256.04 4100.13 1258 4102.13 1258 4105.13 1258 4107.13 1258 4110.13 1258 4112.13 1258 4115.14 1258 4118.14 1258 4120.14 1258 4123.14 1258 4125.14 1258 4128.14 1258 4130.14 1258 4133.14 1258 4136.14 1258 4138.14 1252.04 4141.14 1258 4143.14 1258 4146.14 1258 4148.14 1258.04 4151.14 1258 4153.14 1258 4156.14 1258 4159.14 1258 4161.14 1258 4164.14 1258.04 4166.14 1258 4169.14 1258 4171.14 1258 4174.14 1258 4177.14 1247.04 4179.14 1258 4182.14 1257.04 4184.14 1258 4187.14 1258.04 4189.14 1258 4192.14 1258 4195.14 1258 4197.14 1258 4200.14 1258 4202.14 1218.04 4205.14 1258.04 4207.14 1257.04 4210.14 1257.04 4213.14 1258.04 4215.14 1258 4218.14 1258 4220.14 1258 4223.14 1151.04 4225.14 1257.04 4228.14 1254.04 4231.14 1258 4233.14 1258 4236.14 1246.04 4238.14 1258.04 4241.14 1225.04 4243.14 1238.04 4246.14 1257.04 4249.14 1007.03 4251.14 1257.04 4254.14 1090.04 4256.14 1258.04 4259.14 1252.04 4261.14 1247.04 4264.14 1258 4267.14 1258 4269.14 1258.04 4272.14 1258.04 4274.14 1258.04 4277.14 1256.04 4279.14 1253.04 4282.14 1257 4285.14 1256.04 4287.14 1253.04 4290.14 1258 4292.14 1257.04 4295.14 1258.04 4297.14 1258.04 4300.14 1258 4302.14 1254.04 4305.14 1258 4308.14 1258 4310.14 1258 4313.14 1258 4315.14 1258 4318.14 1242.04 4320.14 1258.04 4323.14 1258 4326.14 1258 4328.14 1258.04 4331.14 1257.04 4333.14 1208.04 4336.14 1257.04 4338.14 1258 4341.14 1258.04 4344.14 1217.04 4346.14 1257.04 4349.14 1244.04 4351.14 1252.04 4354.14 1258.04 4356.14 1258.04 4359.14 1258.04 4362.14 1258.04 4364.14 1258 4367.14 1258 4369.14 1258 4372.14 1258.04 4374.14 1258 4377.14 1258 4380.14 1258 4382.14 1258 4385.14 1258 4387.14 1258 4390.14 1258 4392.14 1258.04 4395.14 1258 4398.14 1258 4400.14 1252.04 4403.14 1258.04 4405.14 1258 4408.14 1258 4410.14 1258 4413.15 1132.04 4416.15 1258 4418.15 1258 4421.15 1258 4423.15 1258 4426.15 1258 4428.15 1258 4431.15 1170.04 4434.15 1251.04 4436.15 1257.04 4439.15 1258 4441.15 1258 4444.15 1258.04 4446.15 1253.04 4449.15 1258 4451.15 1252.04 4454.15 1251.04 4457.15 1258.04 4459.15 1258.04 4462.15 1252.04 4464.15 1258 4467.15 1249.04 4469.15 1258.04 4472.15 1249.04 4475.15 1258 4477.15 1258.04 4480.15 1258.04 4482.15 1258 4485.15 1258.04 4487.15 1258 4490.15 1258 4493.15 1258 4495.15 1258 4498.15 1257.04 4500.15 1255.04 4503.15 1258.04 4505.15 1258 4508.15 1258 4511.15 1258 4513.15 1258 4516.15 1201.04 4518.15 1256.04 4521.15 1257.04 4523.15 1250.04 4526.15 1223.04 4529.15 1258 4531.15 1258 4534.15 1258.04 4536.15 1258 4539.15 1258 4541.15 1258 4544.15 1258.04 4547.15 1256.04 4549.15 1258 4552.15 1258 4554.15 1255.04 4557.15 1256.04 4559.15 1258 4562.15 1258.04 4565.15 1258.04 4567.15 1258 4570.15 1258 4572.15 1258 4575.15 1258 4577.15 1258 4580.15 1258.04 4583.15 1258.04 4585.15 1257.04 4588.15 1257.04 4590.15 1258 4593.15 1258 4595.15 1258 4598.15 1258 4600.15 1258 4603.15 1258 4606.15 1245.04 4608.15 1258 4611.15 1258.04 4613.15 1257.04 4616.15 1244.04 4618.15 1258.04 4621.15 1257.04 4624.15 1258 4626.15 1258 4629.15 1258 4631.15 1258.04 4634.15 1258 4636.15 1258 4639.15 1258.04 4642.15 1258.04 4644.15 1258 4647.15 1258 4649.15 1258 4652.15 1258 4654.15 1258 4657.15 1258 4660.15 1258 4662.15 1258 4665.15 1123.04 4667.15 1258 4670.15 1258 4672.15 1258 4675.15 1258 4678.15 1252.04 4680.15 1258 4683.15 1258 4685.15 1258 4688.15 1258 4690.15 1254.04 4693.15 1249.04 4696.15 1258 4698.15 1258 4701.15 1258 4703.15 1257.04 4706.15 1258 4708.15 1258 4711.15 1258 4714.15 1258.04 4716.15 1258 4719.15 1258 4721.15 1258.04 4724.16 1258 4726.16 1258 4729.16 1256.04 4732.16 1258 4734.16 1258 4737.16 1258 4739.16 1258 4742.16 1258 4744.16 1258 4747.16 1258 4749.16 1258 4752.16 1258 4755.16 1258.04 4757.16 1258 4760.16 1258.04 4762.16 1258 4765.16 1258 4767.16 1258 4770.16 1258.04 4773.16 1258 4775.16 1258 4778.16 1258 4780.16 1258 4783.16 1258.04 4785.16 1258 4788.16 1237.04 4791.16 1258.04 4793.16 1258 4796.16 1258 4798.16 1246.04 4801.16 1258 4803.16 1258.04 4806.16 1258.04 4809.16 1247.04 4811.16 1258 4814.16 1257.04 4816.16 1258 4819.16 1258.04 4821.16 1254.04 4824.16 1258 4827.16 1258 4829.16 1258 4832.16 1253.04 4834.16 1258 4837.16 1258 4839.16 1258 4842.16 1258 4845.16 1257.04 4847.16 1258 4850.16 1258 4852.16 1258 4855.16 1258 4857.16 1258 4860.16 1258 4863.16 1258.04 4865.16 1256.04 4868.16 1256.04 4870.16 1258 4873.16 1258 4875.16 1258 4878.16 1258 4881.16 1258 4883.16 1258.04 4886.16 1258.04 4888.16 1258 4891.16 1258 4893.16 1226.04 4896.16 1258 4898.16 1258 4901.16 1258.04 4904.16 1258 4906.16 1258 4909.16 1258 4911.16 1258.04 4914.16 1258 4916.16 1258 4919.16 1258 4922.16 1258 4924.16 1258 4927.16 1258.04 4929.16 1258 4932.16 1258.04 4934.16 1257.04 4937.16 1258 4940.16 1258 4942.16 1258 4945.16 1258 4947.16 1258 4950.16 1256.04 4952.16 1258 4955.16 1258 4958.16 1258 4960.16 1258 4963.16 1258 4965.16 1257.04 4968.16 1258 4970.16 1258 4973.16 1258 4976.16 1258 4978.16 1258 4981.16 1258 4983.16 1258 4986.16 1258.04 4988.16 1257.04 4991.16 1256.04 4994.16 1257.04 4996.16 1258 4999.16 1258 5001.16 1258 5004.16 1258.04 5006.16 1258 5009.16 1258.04 5012.16 1258 5014.16 1258 5017.16 1258.04 5019.16 1257.04 5022.17 1258.04 5024.17 1258 5027.17 1257.04 5030.17 1257.04 5032.17 1258 5035.17 1258 5037.17 1258 5040.17 1258.04 5042.17 1258 5045.17 1258.04 5047.17 1258 5050.17 1257.04 5053.17 1258 5055.17 1258.04 5058.17 1258.04 5060.17 1258 5063.17 1258 5065.17 1258 5068.17 1258.04 5071.17 1258 5073.17 1258 5076.17 1258.04 5078.17 1258.04 5081.17 1258.04 5083.17 1255.04 5086.17 1258.04 5089.17 1258.04 5091.17 1258.04 5094.17 1258.04 5096.17 1258 5099.17 1257.04 5101.17 1258.04 5104.17 1258 5107.17 1258 5109.17 1258 5112.17 1258 5114.17 1257.04 5117.17 1257.04 5119.17 1258.04 5122.17 1255.04 5125.17 1255.04 5127.17 1258 5130.17 1257.04 5132.17 1258.04 5135.17 1256.04 5137.17 1258.04 5140.17 1258 5143.17 1258 5145.17 1258 5148.17 1258.04 5150.17 1258 5153.17 1254.04 5155.17 1258 5158.17 1258.04 5161.17 1197.04 5163.17 1257.04 5166.17 1258 5168.17 1256.04 5171.17 1257.04 5173.17 1255.04 5176.17 1257.04 5179.17 1258 5181.17 1258.04 5184.17 1258.04 5186.17 1258.04 5189.17 1258 5191.17 1258.04 5194.17 1258.04 5196.17 1257.04 5199.17 1258 5202.17 1258 5204.17 1258 5207.17 1258.04 5209.17 1258.04 5212.17 1258 5214.17 1257.04 5217.17 1258 5220.17 1258.04 5222.17 1258 5225.17 1258 5227.17 1258 5230.17 1257.04 5232.17 1256.04 5235.17 1258.04 5238.17 1258.04 5240.17 1257.04 5243.17 1258.04 5245.17 1258.04 5248.17 1258 5250.17 1258 5253.17 1257.04 5256.17 1258 5258.17 1258.04 5261.17 1258 5263.17 1257.04 5266.17 1258 5268.17 1258.04 5271.17 1258 5274.17 1257.04 5276.17 1258.04 5279.17 1254.04 5281.17 1258.04 5284.17 1225.04 5286.17 1258 5289.17 1239.04 5292.17 1258.04 5294.17 1258 5297.17 1120.04 5299.17 1236.04 5302.17 1250.04 5304.17 1256.04 5307.17 1258.04 5310.17 1202.04 5312.17 680.022 5315.17 1257.04 5317.17 1252.04 5320.17 1221.04 5322.17 1257.04 5325.17 1242.04 5328.17 1257.04 5330.17 1236.04 5333.17 1239.04 5335.18 1257.04 5338.18 1257.04 5340.18 1236.04 5343.18 1258 5345.18 1253.04 5348.18 1244.04 5351.18 1258.04 5353.18 1257.04 5356.18 1258.04 5358.18 1227.04 5361.18 1257.04 5363.18 1257.04 5366.18 1188.04 5369.18 1258 5371.18 1258 5374.18 1145.04 5376.18 1219.04 5379.18 1258.04 5381.18 1258 5384.18 1255.04 5387.18 1224.04 5389.18 1257.04 5392.18 1258 5394.18 1219.04 5397.18 1257.04 5399.18 1224.04 5402.18 1258 5405.18 1254.04 5407.18 1258 5410.18 1258.04 5412.18 1256.04 5415.18 1258.04 5417.18 1258 5420.18 1258 5423.18 1214.04 5425.18 1253.04 5428.18 1256.04 5430.18 1257.04 5433.18 1252.04 5435.18 1159.04 5438.18 346 5441.18 1249.04 5443.18 1248.04 5446.18 1256.04 5448.18 1235.04 5451.18 1242.04 5453.18 1234.04 5456.18 1234.04 5459.18 1248.04 5461.18 1206.04 5464.18 1256.04 5466.18 1258.04 5469.18 1257.04 5471.18 1148.04 5474.18 1256.04 5477.18 1258.04 5479.18 1232.04 5482.18 1208.04 5484.18 1258 5487.18 1235.04 5489.18 1258 5492.18 1258.04 5494.18 1248.04 5497.18 1254.04 5500.18 1258 5502.18 1242.04 5505.18 1238.04 5507.18 1258 5510.18 1258.04 5512.18 1258 5515.18 1258 5518.18 1257.04 5520.18 1258 5523.18 1258 5525.18 1258 5528.18 1244.04 5530.18 1258 5533.18 1258.04 5536.18 1257.04 5538.18 1258 5541.18 1258 5543.18 1257.04 5546.18 1255.04 5548.18 1258 5551.18 1258 5554.18 1247.04 5556.18 1258 5559.18 1258 5561.18 1258 5564.18 1258 5566.18 1249.04 5569.18 1249.04 5572.18 1258 5574.18 1258 5577.18 1250.04 5579.18 1250.04 5582.18 1258 5584.18 1258 5587.18 1258.04 5590.18 1258 5592.18 1258 5595.18 1258.04 5597.18 1258 5600.18 1258 5602.18 1258.04 5605.18 1258 5608.18 1258 5610.18 1258 5613.18 1258 5615.18 1258 5618.18 1258 5620.18 1258 5623.18 1258.04 5626.18 1242.04 5628.18 1248.04 5631.18 1258 5633.19 1258 5636.19 1258 5638.19 1258 5641.19 1258.04 5643.19 1258.04 5646.19 1258 5649.19 1258 5651.19 1258.04 5654.19 1258 5656.19 1258 5659.19 1258 5661.19 1258 5664.19 1258 5667.19 1258 5669.19 1258 5672.19 1258 5674.19 1255.04 5677.19 1258 5679.19 1258 5682.19 1258 5685.19 1258.04 5687.19 1258 5690.19 1258 5692.19 1258.04 5695.19 1258.04 5697.19 1258 5700.19 1258 5703.19 1258 5705.19 1258 5708.19 1258 5710.19 1256.04 5713.19 1258.04 5715.19 1258 5718.19 1258 5721.19 1258 5723.19 1258 5726.19 1258.04 5728.19 1258 5731.19 1258.04 5733.19 1258 5736.19 1247.04 5739.19 1258 5741.19 1258 5744.19 1258 5746.19 1258.04 5749.19 1258 5751.19 1258 5754.19 1258.04 5757.19 1258 5759.19 1258 5762.19 1258 5764.19 1258 5767.19 1258 5769.19 1257.04 5772.19 1258 5775.19 1258 5777.19 1258 5780.19 1258.04 5782.19 1258 5785.19 1258 5787.19 1006.03 5790.19 1258 5792.19 1249.04 5795.19 1258 5798.19 1258 5800.19 1258 5803.19 1258.04 5805.19 1225.04 5808.19 1254.04 5810.19 1127.04 5813.19 1115.04 5816.19 1216.04 5818.19 1243.04 5821.19 1245.04 5823.19 1252.04 5826.19 1256.04 5828.19 1258.04 5831.19 1191.04 5834.19 1255.04 5836.19 1257.04 5839.19 1258.04 5841.19 1254.04 5844.19 1190.04 5846.19 741.024 5849.19 1258.04 5852.19 1241.04 5854.19 1146.04 5857.19 1256.04 5859.19 1257.04 5862.19 1227.04 5864.19 1258 5867.19 1255.04 5870.19 1256.04 5872.19 1258.04 5875.19 1258.04 5877.19 1256.04 5880.19 1257.04 5882.19 1258 5885.19 1251.04 5888.19 1258 5890.19 1140.04 5893.19 1254.04 5895.19 1255.04 5898.19 1254.04 5900.19 1257.04 5903.19 1256.04 5906.19 1258 5908.19 1233.04 5911.19 1257.04 5913.19 1220.04 5916.19 1258 5918.19 1257.04 5921.19 1253.04 5924.19 1254.04 5926.19 1208.04 5929.19 1238.04 5931.19 1232.04 5934.19 1258 5936.19 1229.04 5939.19 1244.04 5941.19 1257.04 5944.2 1228.04 5947.2 1257.04 5949.2 1258.04 5952.2 1258.04 5954.2 1256.04 5957.2 1258.04 5959.2 1247.04 5962.2 1258 5965.2 1258 5967.2 1258.04 5970.2 1255.04 5972.2 1254.04 5975.2 1258.04 5977.2 1258.04 5980.2 1258 5983.2 1223.04 5985.2 1257.04 5988.2 1220.04 5990.2 1251.04 5993.2 1241.04 5995.2 1258.04 5998.2 1257.04 6001.2 1246.04 6003.2 1258.04 6006.2 1257.04 6008 1219.04" stroke="#4472C4" stroke-width="10.3125" stroke-linecap="round" stroke-linejoin="round" stroke-miterlimit="10" stroke-opacity="1" fill="none" fill-rule="nonzero"/></g><g clip-path="url(#clip4)"><path d="M3727 479.016 3730.12 468.015 3732.12 498.016 3735.12 499.016 3737.12 418.014 3740.12 472.015 3742.12 556.018 3745.12 447.015 3748.12 499.016 3750.12 433.014 3753.12 579.019 3755.12 524.017 3758.12 453.015 3760.12 438.014 3763.12 548.018 3766.12 607.02 3768.12 452.015 3771.12 502.016 3773.12 604.02 3776.12 523.017 3778.12 553.018 3781.12 551.018 3784.12 463.015 3786.12 481.016 3789.12 561.018 3791.12 530.017 3794.12 504.017 3796.12 451.015 3799.12 447.015 3802.12 465.015 3804.12 577.019 3807.12 477.016 3809.12 549.018 3812.13 493.016 3814.13 453.015 3817.13 460.015 3820.13 445.015 3822.13 530.017 3825.13 466.015 3827.13 425.014 3830.13 455.015 3832.13 424.014 3835.13 548.018 3838.13 428.014 3840.13 525.017 3843.13 497.016 3845.13 454.015 3848.13 577.019 3850.13 509.017 3853.13 578.019 3855.13 520.017 3858.13 541.018 3861.13 529.017 3863.13 513.017 3866.13 513.017 3868.13 540.018 3871.13 507.017 3873.13 566.019 3876.13 497.016 3879.13 538.018 3881.13 566.019 3884.13 604.02 3886.13 518.017 3889.13 599.02 3891.13 502.016 3894.13 578.019 3897.13 569.019 3899.13 519.017 3902.13 648.021 3904.13 529.017 3907.13 538.018 3909.13 559.018 3912.13 499.016 3915.13 514.017 3917.13 528.017 3920.13 546.018 3922.13 564.018 3925.13 568.019 3927.13 560.018 3930.13 517.017 3933.13 553.018 3935.13 602.02 3938.13 559.018 3940.13 506.017 3943.13 587.019 3945.13 455.015 3948.13 587.019 3951.13 489.016 3953.13 547.018 3956.13 620.02 3958.13 541.018 3961.13 556.018 3963.13 536.018 3966.13 547.018 3969.13 525.017 3971.13 555.018 3974.13 491.016 3976.13 637.021 3979.13 565.019 3981.13 538.018 3984.13 520.017 3987.13 504.017 3989.13 525.017 3992.13 555.018 3994.13 569.019 3997.13 564.018 3999.13 486.016 4002.13 598.02 4004.13 595.02 4007.13 616.02 4010.13 635.021 4012.13 592.019 4015.13 577.019 4017.13 548.018 4020.13 586.019 4022.13 594.019 4025.13 542.018 4028.13 553.018 4030.13 562.018 4033.13 638.021 4035.13 545.018 4038.13 578.019 4040.13 571.019 4043.13 648.021 4046.13 562.018 4048.13 415.014 4051.13 544.018 4053.13 575.019 4056.13 524.017 4058.13 596.02 4061.13 551.018 4064.13 557.018 4066.13 628.021 4069.13 614.02 4071.13 579.019 4074.13 600.02 4076.13 624.02 4079.13 594.019 4082.13 613.02 4084.13 598.02 4087.13 535.018 4089.13 585.019 4092.13 611.02 4094.13 532.017 4097.13 496.016 4100.13 518.017 4102.13 585.019 4105.13 619.02 4107.13 564.018 4110.13 538.018 4112.13 594.019 4115.14 533.017 4118.14 590.019 4120.14 572.019 4123.14 626.021 4125.14 523.017 4128.14 615.02 4130.14 527.017 4133.14 582.019 4136.14 535.018 4138.14 547.018 4141.14 577.019 4143.14 589.019 4146.14 549.018 4148.14 556.018 4151.14 579.019 4153.14 544.018 4156.14 620.02 4159.14 584.019 4161.14 538.018 4164.14 619.02 4166.14 560.018 4169.14 614.02 4171.14 555.018 4174.14 560.018 4177.14 603.02 4179.14 593.019 4182.14 539.018 4184.14 603.02 4187.14 599.02 4189.14 607.02 4192.14 599.02 4195.14 609.02 4197.14 585.019 4200.14 647.021 4202.14 500.016 4205.14 550.018 4207.14 511.017 4210.14 580.019 4213.14 498.016 4215.14 579.019 4218.14 522.017 4220.14 581.019 4223.14 452.015 4225.14 514.017 4228.14 517.017 4231.14 467.015 4233.14 514.017 4236.14 524.017 4238.14 453.015 4241.14 571.019 4243.14 617.02 4246.14 477.016 4249.14 512.017 4251.14 459.015 4254.14 477.016 4256.14 508.017 4259.14 510.017 4261.14 557.018 4264.14 469.015 4267.14 456.015 4269.14 462.015 4272.14 516.017 4274.14 492.016 4277.14 563.018 4279.14 550.018 4282.14 612.02 4285.14 654.021 4287.14 628.021 4290.14 606.02 4292.14 479.016 4295.14 447.015 4297.14 479.016 4300.14 485.016 4302.14 444.015 4305.14 516.017 4308.14 595.02 4310.14 554.018 4313.14 599.02 4315.14 604.02 4318.14 556.018 4320.14 497.016 4323.14 623.02 4326.14 544.018 4328.14 558.018 4331.14 615.02 4333.14 572.019 4336.14 483.016 4338.14 605.02 4341.14 552.018 4344.14 591.019 4346.14 484.016 4349.14 506.017 4351.14 521.017 4354.14 541.018 4356.14 462.015 4359.14 487.016 4362.14 560.018 4364.14 598.02 4367.14 576.019 4369.14 560.018 4372.14 540.018 4374.14 552.018 4377.14 556.018 4380.14 568.019 4382.14 644.021 4385.14 555.018 4387.14 539.018 4390.14 590.019 4392.14 567.019 4395.14 502.016 4398.14 594.019 4400.14 613.02 4403.14 560.018 4405.14 556.018 4408.14 584.019 4410.14 595.02 4413.15 768.025 4416.15 493.016 4418.15 590.019 4421.15 562.018 4423.15 560.018 4426.15 614.02 4428.15 620.02 4431.15 544.018 4434.15 610.02 4436.15 687.023 4439.15 597.02 4441.15 558.018 4444.15 622.02 4446.15 656.021 4449.15 547.018 4451.15 690.023 4454.15 669.022 4457.15 592.019 4459.15 661.022 4462.15 599.02 4464.15 577.019 4467.15 580.019 4469.15 646.021 4472.15 589.019 4475.15 591.019 4477.15 627.021 4480.15 714.023 4482.15 588.019 4485.15 695.023 4487.15 600.02 4490.15 569.019 4493.15 586.019 4495.15 541.018 4498.15 700.023 4500.15 572.019 4503.15 669.022 4505.15 593.019 4508.15 611.02 4511.15 530.017 4513.15 681.022 4516.15 564.018 4518.15 597.02 4521.15 689.023 4523.15 586.019 4526.15 547.018 4529.15 562.018 4531.15 615.02 4534.15 699.023 4536.15 650.021 4539.15 584.019 4541.15 601.02 4544.15 649.021 4547.15 777.025 4549.15 598.02 4552.15 572.019 4554.15 758.025 4557.15 613.02 4559.15 571.019 4562.15 659.022 4565.15 593.019 4567.15 597.02 4570.15 703.023 4572.15 608.02 4575.15 553.018 4577.15 576.019 4580.15 693.023 4583.15 616.02 4585.15 627.021 4588.15 578.019 4590.15 545.018 4593.15 613.02 4595.15 584.019 4598.15 589.019 4600.15 581.019 4603.15 608.02 4606.15 647.021 4608.15 570.019 4611.15 616.02 4613.15 674.022 4616.15 639.021 4618.15 584.019 4621.15 720.024 4624.15 657.022 4626.15 659.022 4629.15 603.02 4631.15 598.02 4634.15 585.019 4636.15 543.018 4639.15 693.023 4642.15 592.019 4644.15 601.02 4647.15 577.019 4649.15 616.02 4652.15 614.02 4654.15 589.019 4657.15 583.019 4660.15 588.019 4662.15 595.02 4665.15 632.021 4667.15 611.02 4670.15 541.018 4672.15 584.019 4675.15 568.019 4678.15 570.019 4680.15 576.019 4683.15 580.019 4685.15 603.02 4688.15 558.018 4690.15 711.023 4693.15 644.021 4696.15 617.02 4698.15 690.023 4701.15 583.019 4703.15 677.022 4706.15 694.023 4708.15 682.022 4711.15 705.023 4714.15 586.019 4716.15 576.019 4719.15 682.022 4721.15 681.022 4724.16 545.018 4726.16 561.018 4729.16 651.021 4732.16 597.02 4734.16 543.018 4737.16 608.02 4739.16 691.023 4742.16 632.021 4744.16 556.018 4747.16 539.018 4749.16 599.02 4752.16 602.02 4755.16 637.021 4757.16 566.019 4760.16 705.023 4762.16 599.02 4765.16 557.018 4767.16 711.023 4770.16 591.019 4773.16 592.019 4775.16 563.018 4778.16 579.019 4780.16 593.019 4783.16 605.02 4785.16 561.018 4788.16 685.022 4791.16 716.023 4793.16 561.018 4796.16 577.019 4798.16 655.021 4801.16 605.02 4803.16 594.019 4806.16 661.022 4809.16 658.022 4811.16 603.02 4814.16 575.019 4816.16 580.019 4819.16 595.02 4821.16 737.024 4824.16 607.02 4827.16 731.024 4829.16 553.018 4832.16 638.021 4834.16 610.02 4837.16 573.019 4839.16 626.021 4842.16 691.023 4845.16 628.021 4847.16 676.022 4850.16 589.019 4852.16 559.018 4855.16 571.019 4857.16 601.02 4860.16 575.019 4863.16 604.02 4865.16 659.022 4868.16 643.021 4870.16 597.02 4873.16 615.02 4875.16 630.021 4878.16 584.019 4881.16 579.019 4883.16 663.022 4886.16 587.019 4888.16 581.019 4891.16 618.02 4893.16 641.021 4896.16 573.019 4898.16 658.022 4901.16 590.019 4904.16 576.019 4906.16 643.021 4909.16 591.019 4911.16 695.023 4914.16 544.018 4916.16 542.018 4919.16 556.018 4922.16 590.019 4924.16 568.019 4927.16 669.022 4929.16 717.023 4932.16 766.025 4934.16 661.022 4937.16 672.022 4940.16 660.022 4942.16 609.02 4945.16 598.02 4947.16 768.025 4950.16 803.026 4952.16 537.018 4955.16 592.019 4958.16 679.022 4960.16 533.017 4963.16 556.018 4965.16 711.023 4968.16 558.018 4970.16 606.02 4973.16 574.019 4976.16 540.018 4978.16 549.018 4981.16 592.019 4983.16 618.02 4986.16 738.024 4988.16 714.023 4991.16 667.022 4994.16 693.023 4996.16 562.018 4999.16 709.023 5001.16 629.021 5004.16 723.024 5006.16 707.023 5009.16 609.02 5012.16 677.022 5014.16 654.021 5017.16 667.022 5019.16 638.021 5022.17 691.023 5024.17 632.021 5027.17 655.021 5030.17 573.019 5032.17 628.021 5035.17 607.02 5037.17 623.02 5040.17 599.02 5042.17 616.02 5045.17 592.019 5047.17 652.021 5050.17 737.024 5053.17 568.019 5055.17 643.021 5058.17 649.021 5060.17 709.023 5063.17 603.02 5065.17 683.022 5068.17 579.019 5071.17 609.02 5073.17 598.02 5076.17 567.019 5078.17 642.021 5081.17 620.02 5083.17 705.023 5086.17 678.022 5089.17 772.025 5091.17 668.022 5094.17 742.024 5096.17 644.021 5099.17 678.022 5101.17 661.022 5104.17 694.023 5107.17 591.019 5109.17 738.024 5112.17 601.02 5114.17 654.021 5117.17 663.022 5119.17 692.023 5122.17 542.018 5125.17 679.022 5127.17 632.021 5130.17 647.021 5132.17 677.022 5135.17 707.023 5137.17 676.022 5140.17 595.02 5143.17 689.023 5145.17 642.021 5148.17 623.02 5150.17 602.02 5153.17 545.018 5155.17 591.019 5158.17 707.023 5161.17 664.022 5163.17 584.019 5166.17 715.023 5168.17 817.027 5171.17 798.026 5173.17 671.022 5176.17 585.019 5179.17 684.022 5181.17 689.023 5184.17 614.02 5186.17 623.02 5189.17 589.019 5191.17 688.023 5194.17 687.023 5196.17 707.023 5199.17 616.02 5202.17 663.022 5204.17 606.02 5207.17 795.026 5209.17 781.026 5212.17 692.023 5214.17 668.022 5217.17 652.021 5220.17 598.02 5222.17 687.023 5225.17 587.019 5227.17 576.019 5230.17 641.021 5232.17 615.02 5235.17 692.023 5238.17 774.025 5240.17 630.021 5243.17 574.019 5245.17 691.023 5248.17 606.02 5250.17 772.025 5253.17 626.021 5256.17 691.023 5258.17 587.019 5261.17 692.023 5263.17 571.019 5266.17 716.023 5268.17 692.023 5271.17 770.025 5274.17 779.026 5276.17 590.019 5279.17 619.02 5281.17 673.022 5284.17 504.017 5286.17 648.021 5289.17 569.019 5292.17 563.018 5294.17 713.023 5297.17 548.018 5299.17 595.02 5302.17 560.018 5304.17 540.018 5307.17 707.023 5310.17 581.019 5312.17 537.018 5315.17 528.017 5317.17 510.017 5320.17 546.018 5322.17 527.017 5325.17 472.015 5328.17 495.016 5330.17 518.017 5333.17 471.015 5335.18 475.016 5338.18 455.015 5340.18 476.016 5343.18 489.016 5345.18 474.016 5348.18 514.017 5351.18 490.016 5353.18 471.015 5356.18 517.017 5358.18 470.015 5361.18 489.016 5363.18 481.016 5366.18 446.015 5369.18 487.016 5371.18 483.016 5374.18 460.015 5376.18 444.015 5379.18 474.016 5381.18 480.016 5384.18 473.016 5387.18 421.014 5389.18 515.017 5392.18 478.016 5394.18 455.015 5397.18 468.015 5399.18 493.016 5402.18 479.016 5405.18 490.016 5407.18 489.016 5410.18 478.016 5412.18 487.016 5415.18 487.016 5417.18 468.015 5420.18 483.016 5423.18 451.015 5425.18 525.017 5428.18 465.015 5430.18 474.016 5433.18 463.015 5435.18 473.016 5438.18 1258 5441.18 448.015 5443.18 491.016 5446.18 508.017 5448.18 513.017 5451.18 489.016 5453.18 775.025 5456.18 842.028 5459.18 562.018 5461.18 526.017 5464.18 533.017 5466.18 747.024 5469.18 476.016 5471.18 523.017 5474.18 744.024 5477.18 469.015 5479.18 539.018 5482.18 568.019 5484.18 724.024 5487.18 507.017 5489.18 565.019 5492.18 661.022 5494.18 528.017 5497.18 649.021 5500.18 612.02 5502.18 490.016 5505.18 515.017 5507.18 541.018 5510.18 693.023 5512.18 710.023 5515.18 559.018 5518.18 450.015 5520.18 654.021 5523.18 527.017 5525.18 597.02 5528.18 548.018 5530.18 664.022 5533.18 637.021 5536.18 580.019 5538.18 682.022 5541.18 610.02 5543.18 642.021 5546.18 622.02 5548.18 597.02 5551.18 645.021 5554.18 754.025 5556.18 602.02 5559.18 676.022 5561.18 655.021 5564.18 580.019 5566.18 630.021 5569.18 565.019 5572.18 631.021 5574.18 574.019 5577.18 601.02 5579.18 650.021 5582.18 659.022 5584.18 656.021 5587.18 638.021 5590.18 638.021 5592.18 575.019 5595.18 619.02 5597.18 604.02 5600.18 569.019 5602.18 606.02 5605.18 540.018 5608.18 617.02 5610.18 644.021 5613.18 617.02 5615.18 585.019 5618.18 585.019 5620.18 659.022 5623.18 687.023 5626.18 597.02 5628.18 600.02 5631.18 655.021 5633.19 622.02 5636.19 621.02 5638.19 594.019 5641.19 639.021 5643.19 672.022 5646.19 627.021 5649.19 679.022 5651.19 652.021 5654.19 570.019 5656.19 646.021 5659.19 695.023 5661.19 672.022 5664.19 619.02 5667.19 670.022 5669.19 622.02 5672.19 616.02 5674.19 646.021 5677.19 661.022 5679.19 689.023 5682.19 644.021 5685.19 651.021 5687.19 588.019 5690.19 635.021 5692.19 678.022 5695.19 670.022 5697.19 638.021 5700.19 605.02 5703.19 648.021 5705.19 584.019 5708.19 648.021 5710.19 616.02 5713.19 638.021 5715.19 669.022 5718.19 642.021 5721.19 635.021 5723.19 593.019 5726.19 638.021 5728.19 658.022 5731.19 660.022 5733.19 625.021 5736.19 616.02 5739.19 660.022 5741.19 643.021 5744.19 594.019 5746.19 608.02 5749.19 688.023 5751.19 615.02 5754.19 703.023 5757.19 653.021 5759.19 615.02 5762.19 675.022 5764.19 605.02 5767.19 677.022 5769.19 650.021 5772.19 671.022 5775.19 670.022 5777.19 658.022 5780.19 689.023 5782.19 679.022 5785.19 697.023 5787.19 554.018 5790.19 627.021 5792.19 890.029 5795.19 755.025 5798.19 650.021 5800.19 682.022 5803.19 636.021 5805.19 702.023 5808.19 697.023 5810.19 1186.04 5813.19 504.017 5816.19 441.014 5818.19 688.023 5821.19 658.022 5823.19 802.026 5826.19 434.014 5828.19 672.022 5831.19 518.017 5834.19 462.015 5836.19 443.015 5839.19 452.015 5841.19 454.015 5844.19 670.022 5846.19 730.024 5849.19 649.021 5852.19 1000.03 5854.19 895.029 5857.19 663.022 5859.19 685.022 5862.19 872.029 5864.19 485.016 5867.19 502.016 5870.19 655.021 5872.19 932.031 5875.19 485.016 5877.19 474.016 5880.19 479.016 5882.19 487.016 5885.19 497.016 5888.19 486.016 5890.19 579.019 5893.19 480.016 5895.19 455.015 5898.19 484.016 5900.19 472.015 5903.19 493.016 5906.19 488.016 5908.19 503.016 5911.19 474.016 5913.19 511.017 5916.19 675.022 5918.19 453.015 5921.19 469.015 5924.19 512.017 5926.19 504.017 5929.19 516.017 5931.19 506.017 5934.19 911.03 5936.19 534.018 5939.19 521.017 5941.19 484.016 5944.2 549.018 5947.2 459.015 5949.2 500.016 5952.2 483.016 5954.2 557.018 5957.2 461.015 5959.2 550.018 5962.2 637.021 5965.2 429.014 5967.2 408.013 5970.2 491.016 5972.2 526.017 5975.2 477.016 5977.2 465.015 5980.2 560.018 5983.2 510.017 5985.2 465.015 5988.2 579.019 5990.2 544.018 5993.2 637.021 5995.2 531.017 5998.2 558.018 6001.2 541.018 6003.2 558.018 6006.2 456.015 6008 346" stroke="#ED7D31" stroke-width="10.3125" stroke-linecap="round" stroke-linejoin="round" stroke-miterlimit="10" stroke-opacity="1" fill="none" fill-rule="nonzero"/></g><g clip-path="url(#clip5)"><text fill="#595959" fill-opacity="1" font-family="Calibri,Calibri_MSFontService,sans-serif" font-style="normal" font-variant="normal" font-weight="400" font-stretch="normal" font-size="41" text-anchor="start" direction="ltr" writing-mode="lr-tb" unicode-bidi="normal" text-decoration="none" transform="matrix(1 0 0 1 3666.71 1268)">0</text></g><g clip-path="url(#clip6)"><text fill="#595959" fill-opacity="1" font-family="Calibri,Calibri_MSFontService,sans-serif" font-style="normal" font-variant="normal" font-weight="400" font-stretch="normal" font-size="41" text-anchor="start" direction="ltr" writing-mode="lr-tb" unicode-bidi="normal" text-decoration="none" transform="matrix(1 0 0 1 3635.52 1177)">0,1</text></g><g clip-path="url(#clip7)"><text fill="#595959" fill-opacity="1" font-family="Calibri,Calibri_MSFontService,sans-serif" font-style="normal" font-variant="normal" font-weight="400" font-stretch="normal" font-size="41" text-anchor="start" direction="ltr" writing-mode="lr-tb" unicode-bidi="normal" text-decoration="none" transform="matrix(1 0 0 1 3635.52 1086)">0,2</text></g><g clip-path="url(#clip8)"><text fill="#595959" fill-opacity="1" font-family="Calibri,Calibri_MSFontService,sans-serif" font-style="normal" font-variant="normal" font-weight="400" font-stretch="normal" font-size="41" text-anchor="start" direction="ltr" writing-mode="lr-tb" unicode-bidi="normal" text-decoration="none" transform="matrix(1 0 0 1 3635.52 995)">0,3</text></g><g clip-path="url(#clip9)"><text fill="#595959" fill-opacity="1" font-family="Calibri,Calibri_MSFontService,sans-serif" font-style="normal" font-variant="normal" font-weight="400" font-stretch="normal" font-size="41" text-anchor="start" direction="ltr" writing-mode="lr-tb" unicode-bidi="normal" text-decoration="none" transform="matrix(1 0 0 1 3635.52 903)">0,4</text></g><g clip-path="url(#clip10)"><text fill="#595959" fill-opacity="1" font-family="Calibri,Calibri_MSFontService,sans-serif" font-style="normal" font-variant="normal" font-weight="400" font-stretch="normal" font-size="41" text-anchor="start" direction="ltr" writing-mode="lr-tb" unicode-bidi="normal" text-decoration="none" transform="matrix(1 0 0 1 3635.52 812)">0,5</text></g><g clip-path="url(#clip11)"><text fill="#595959" fill-opacity="1" font-family="Calibri,Calibri_MSFontService,sans-serif" font-style="normal" font-variant="normal" font-weight="400" font-stretch="normal" font-size="41" text-anchor="start" direction="ltr" writing-mode="lr-tb" unicode-bidi="normal" text-decoration="none" transform="matrix(1 0 0 1 3635.52 721)">0,6</text></g><g clip-path="url(#clip12)"><text fill="#595959" fill-opacity="1" font-family="Calibri,Calibri_MSFontService,sans-serif" font-style="normal" font-variant="normal" font-weight="400" font-stretch="normal" font-size="41" text-anchor="start" direction="ltr" writing-mode="lr-tb" unicode-bidi="normal" text-decoration="none" transform="matrix(1 0 0 1 3635.52 630)">0,7</text></g><g clip-path="url(#clip13)"><text fill="#595959" fill-opacity="1" font-family="Calibri,Calibri_MSFontService,sans-serif" font-style="normal" font-variant="normal" font-weight="400" font-stretch="normal" font-size="41" text-anchor="start" direction="ltr" writing-mode="lr-tb" unicode-bidi="normal" text-decoration="none" transform="matrix(1 0 0 1 3635.52 539)">0,8</text></g><g clip-path="url(#clip14)"><text fill="#595959" fill-opacity="1" font-family="Calibri,Calibri_MSFontService,sans-serif" font-style="normal" font-variant="normal" font-weight="400" font-stretch="normal" font-size="41" text-anchor="start" direction="ltr" writing-mode="lr-tb" unicode-bidi="normal" text-decoration="none" transform="matrix(1 0 0 1 3635.52 448)">0,9</text></g><g clip-path="url(#clip15)"><text fill="#595959" fill-opacity="1" font-family="Calibri,Calibri_MSFontService,sans-serif" font-style="normal" font-variant="normal" font-weight="400" font-stretch="normal" font-size="41" text-anchor="start" direction="ltr" writing-mode="lr-tb" unicode-bidi="normal" text-decoration="none" transform="matrix(1 0 0 1 3666.71 356)">1</text></g><g clip-path="url(#clip16)"><text fill="#595959" fill-opacity="1" font-family="Calibri,Calibri_MSFontService,sans-serif" font-style="normal" font-variant="normal" font-weight="400" font-stretch="normal" font-size="41" text-anchor="start" direction="ltr" writing-mode="lr-tb" unicode-bidi="normal" text-decoration="none" transform="matrix(6.12323e-17 -1 1 6.12323e-17 3740.99 1305)">1</text></g><g clip-path="url(#clip17)"><text fill="#595959" fill-opacity="1" font-family="Calibri,Calibri_MSFontService,sans-serif" font-style="normal" font-variant="normal" font-weight="400" font-stretch="normal" font-size="41" text-anchor="start" direction="ltr" writing-mode="lr-tb" unicode-bidi="normal" text-decoration="none" transform="matrix(6.12323e-17 -1 1 6.12323e-17 3792.37 1326)">21</text></g><g clip-path="url(#clip18)"><text fill="#595959" fill-opacity="1" font-family="Calibri,Calibri_MSFontService,sans-serif" font-style="normal" font-variant="normal" font-weight="400" font-stretch="normal" font-size="41" text-anchor="start" direction="ltr" writing-mode="lr-tb" unicode-bidi="normal" text-decoration="none" transform="matrix(6.12323e-17 -1 1 6.12323e-17 3843.75 1326)">41</text></g><g clip-path="url(#clip19)"><text fill="#595959" fill-opacity="1" font-family="Calibri,Calibri_MSFontService,sans-serif" font-style="normal" font-variant="normal" font-weight="400" font-stretch="normal" font-size="41" text-anchor="start" direction="ltr" writing-mode="lr-tb" unicode-bidi="normal" text-decoration="none" transform="matrix(6.12323e-17 -1 1 6.12323e-17 3895.13 1326)">61</text></g><g clip-path="url(#clip20)"><text fill="#595959" fill-opacity="1" font-family="Calibri,Calibri_MSFontService,sans-serif" font-style="normal" font-variant="normal" font-weight="400" font-stretch="normal" font-size="41" text-anchor="start" direction="ltr" writing-mode="lr-tb" unicode-bidi="normal" text-decoration="none" transform="matrix(6.12323e-17 -1 1 6.12323e-17 3946.51 1326)">81</text></g><g clip-path="url(#clip21)"><text fill="#595959" fill-opacity="1" font-family="Calibri,Calibri_MSFontService,sans-serif" font-style="normal" font-variant="normal" font-weight="400" font-stretch="normal" font-size="41" text-anchor="start" direction="ltr" writing-mode="lr-tb" unicode-bidi="normal" text-decoration="none" transform="matrix(6.12323e-17 -1 1 6.12323e-17 3997.9 1347)">101</text></g><g clip-path="url(#clip22)"><text fill="#595959" fill-opacity="1" font-family="Calibri,Calibri_MSFontService,sans-serif" font-style="normal" font-variant="normal" font-weight="400" font-stretch="normal" font-size="41" text-anchor="start" direction="ltr" writing-mode="lr-tb" unicode-bidi="normal" text-decoration="none" transform="matrix(6.12323e-17 -1 1 6.12323e-17 4049.28 1347)">121</text></g><g clip-path="url(#clip23)"><text fill="#595959" fill-opacity="1" font-family="Calibri,Calibri_MSFontService,sans-serif" font-style="normal" font-variant="normal" font-weight="400" font-stretch="normal" font-size="41" text-anchor="start" direction="ltr" writing-mode="lr-tb" unicode-bidi="normal" text-decoration="none" transform="matrix(6.12323e-17 -1 1 6.12323e-17 4100.66 1347)">141</text></g><g clip-path="url(#clip24)"><text fill="#595959" fill-opacity="1" font-family="Calibri,Calibri_MSFontService,sans-serif" font-style="normal" font-variant="normal" font-weight="400" font-stretch="normal" font-size="41" text-anchor="start" direction="ltr" writing-mode="lr-tb" unicode-bidi="normal" text-decoration="none" transform="matrix(6.12323e-17 -1 1 6.12323e-17 4152.04 1347)">161</text></g><g clip-path="url(#clip25)"><text fill="#595959" fill-opacity="1" font-family="Calibri,Calibri_MSFontService,sans-serif" font-style="normal" font-variant="normal" font-weight="400" font-stretch="normal" font-size="41" text-anchor="start" direction="ltr" writing-mode="lr-tb" unicode-bidi="normal" text-decoration="none" transform="matrix(6.12323e-17 -1 1 6.12323e-17 4203.42 1347)">181</text></g><g clip-path="url(#clip26)"><text fill="#595959" fill-opacity="1" font-family="Calibri,Calibri_MSFontService,sans-serif" font-style="normal" font-variant="normal" font-weight="400" font-stretch="normal" font-size="41" text-anchor="start" direction="ltr" writing-mode="lr-tb" unicode-bidi="normal" text-decoration="none" transform="matrix(6.12323e-17 -1 1 6.12323e-17 4254.8 1347)">201</text></g><g clip-path="url(#clip27)"><text fill="#595959" fill-opacity="1" font-family="Calibri,Calibri_MSFontService,sans-serif" font-style="normal" font-variant="normal" font-weight="400" font-stretch="normal" font-size="41" text-anchor="start" direction="ltr" writing-mode="lr-tb" unicode-bidi="normal" text-decoration="none" transform="matrix(6.12323e-17 -1 1 6.12323e-17 4306.18 1347)">221</text></g><g clip-path="url(#clip28)"><text fill="#595959" fill-opacity="1" font-family="Calibri,Calibri_MSFontService,sans-serif" font-style="normal" font-variant="normal" font-weight="400" font-stretch="normal" font-size="41" text-anchor="start" direction="ltr" writing-mode="lr-tb" unicode-bidi="normal" text-decoration="none" transform="matrix(6.12323e-17 -1 1 6.12323e-17 4357.56 1347)">241</text></g><g clip-path="url(#clip29)"><text fill="#595959" fill-opacity="1" font-family="Calibri,Calibri_MSFontService,sans-serif" font-style="normal" font-variant="normal" font-weight="400" font-stretch="normal" font-size="41" text-anchor="start" direction="ltr" writing-mode="lr-tb" unicode-bidi="normal" text-decoration="none" transform="matrix(6.12323e-17 -1 1 6.12323e-17 4408.94 1347)">261</text></g><g clip-path="url(#clip30)"><text fill="#595959" fill-opacity="1" font-family="Calibri,Calibri_MSFontService,sans-serif" font-style="normal" font-variant="normal" font-weight="400" font-stretch="normal" font-size="41" text-anchor="start" direction="ltr" writing-mode="lr-tb" unicode-bidi="normal" text-decoration="none" transform="matrix(6.12323e-17 -1 1 6.12323e-17 4460.32 1347)">281</text></g><g clip-path="url(#clip31)"><text fill="#595959" fill-opacity="1" font-family="Calibri,Calibri_MSFontService,sans-serif" font-style="normal" font-variant="normal" font-weight="400" font-stretch="normal" font-size="41" text-anchor="start" direction="ltr" writing-mode="lr-tb" unicode-bidi="normal" text-decoration="none" transform="matrix(6.12323e-17 -1 1 6.12323e-17 4511.71 1347)">301</text></g><g clip-path="url(#clip32)"><text fill="#595959" fill-opacity="1" font-family="Calibri,Calibri_MSFontService,sans-serif" font-style="normal" font-variant="normal" font-weight="400" font-stretch="normal" font-size="41" text-anchor="start" direction="ltr" writing-mode="lr-tb" unicode-bidi="normal" text-decoration="none" transform="matrix(6.12323e-17 -1 1 6.12323e-17 4563.09 1347)">321</text></g><g clip-path="url(#clip33)"><text fill="#595959" fill-opacity="1" font-family="Calibri,Calibri_MSFontService,sans-serif" font-style="normal" font-variant="normal" font-weight="400" font-stretch="normal" font-size="41" text-anchor="start" direction="ltr" writing-mode="lr-tb" unicode-bidi="normal" text-decoration="none" transform="matrix(6.12323e-17 -1 1 6.12323e-17 4614.47 1347)">341</text></g><g clip-path="url(#clip34)"><text fill="#595959" fill-opacity="1" font-family="Calibri,Calibri_MSFontService,sans-serif" font-style="normal" font-variant="normal" font-weight="400" font-stretch="normal" font-size="41" text-anchor="start" direction="ltr" writing-mode="lr-tb" unicode-bidi="normal" text-decoration="none" transform="matrix(6.12323e-17 -1 1 6.12323e-17 4665.85 1347)">361</text></g><g clip-path="url(#clip35)"><text fill="#595959" fill-opacity="1" font-family="Calibri,Calibri_MSFontService,sans-serif" font-style="normal" font-variant="normal" font-weight="400" font-stretch="normal" font-size="41" text-anchor="start" direction="ltr" writing-mode="lr-tb" unicode-bidi="normal" text-decoration="none" transform="matrix(6.12323e-17 -1 1 6.12323e-17 4717.23 1347)">381</text></g><g clip-path="url(#clip36)"><text fill="#595959" fill-opacity="1" font-family="Calibri,Calibri_MSFontService,sans-serif" font-style="normal" font-variant="normal" font-weight="400" font-stretch="normal" font-size="41" text-anchor="start" direction="ltr" writing-mode="lr-tb" unicode-bidi="normal" text-decoration="none" transform="matrix(6.12323e-17 -1 1 6.12323e-17 4768.61 1347)">401</text></g><g clip-path="url(#clip37)"><text fill="#595959" fill-opacity="1" font-family="Calibri,Calibri_MSFontService,sans-serif" font-style="normal" font-variant="normal" font-weight="400" font-stretch="normal" font-size="41" text-anchor="start" direction="ltr" writing-mode="lr-tb" unicode-bidi="normal" text-decoration="none" transform="matrix(6.12323e-17 -1 1 6.12323e-17 4819.99 1347)">421</text></g><g clip-path="url(#clip38)"><text fill="#595959" fill-opacity="1" font-family="Calibri,Calibri_MSFontService,sans-serif" font-style="normal" font-variant="normal" font-weight="400" font-stretch="normal" font-size="41" text-anchor="start" direction="ltr" writing-mode="lr-tb" unicode-bidi="normal" text-decoration="none" transform="matrix(6.12323e-17 -1 1 6.12323e-17 4871.37 1347)">441</text></g><g clip-path="url(#clip39)"><text fill="#595959" fill-opacity="1" font-family="Calibri,Calibri_MSFontService,sans-serif" font-style="normal" font-variant="normal" font-weight="400" font-stretch="normal" font-size="41" text-anchor="start" direction="ltr" writing-mode="lr-tb" unicode-bidi="normal" text-decoration="none" transform="matrix(6.12323e-17 -1 1 6.12323e-17 4922.75 1347)">461</text></g><g clip-path="url(#clip40)"><text fill="#595959" fill-opacity="1" font-family="Calibri,Calibri_MSFontService,sans-serif" font-style="normal" font-variant="normal" font-weight="400" font-stretch="normal" font-size="41" text-anchor="start" direction="ltr" writing-mode="lr-tb" unicode-bidi="normal" text-decoration="none" transform="matrix(6.12323e-17 -1 1 6.12323e-17 4974.14 1347)">481</text></g><g clip-path="url(#clip41)"><text fill="#595959" fill-opacity="1" font-family="Calibri,Calibri_MSFontService,sans-serif" font-style="normal" font-variant="normal" font-weight="400" font-stretch="normal" font-size="41" text-anchor="start" direction="ltr" writing-mode="lr-tb" unicode-bidi="normal" text-decoration="none" transform="matrix(6.12323e-17 -1 1 6.12323e-17 5025.52 1347)">501</text></g><g clip-path="url(#clip42)"><text fill="#595959" fill-opacity="1" font-family="Calibri,Calibri_MSFontService,sans-serif" font-style="normal" font-variant="normal" font-weight="400" font-stretch="normal" font-size="41" text-anchor="start" direction="ltr" writing-mode="lr-tb" unicode-bidi="normal" text-decoration="none" transform="matrix(6.12323e-17 -1 1 6.12323e-17 5076.9 1347)">521</text></g><g clip-path="url(#clip43)"><text fill="#595959" fill-opacity="1" font-family="Calibri,Calibri_MSFontService,sans-serif" font-style="normal" font-variant="normal" font-weight="400" font-stretch="normal" font-size="41" text-anchor="start" direction="ltr" writing-mode="lr-tb" unicode-bidi="normal" text-decoration="none" transform="matrix(6.12323e-17 -1 1 6.12323e-17 5128.28 1347)">541</text></g><g clip-path="url(#clip44)"><text fill="#595959" fill-opacity="1" font-family="Calibri,Calibri_MSFontService,sans-serif" font-style="normal" font-variant="normal" font-weight="400" font-stretch="normal" font-size="41" text-anchor="start" direction="ltr" writing-mode="lr-tb" unicode-bidi="normal" text-decoration="none" transform="matrix(6.12323e-17 -1 1 6.12323e-17 5179.66 1347)">561</text></g><g clip-path="url(#clip45)"><text fill="#595959" fill-opacity="1" font-family="Calibri,Calibri_MSFontService,sans-serif" font-style="normal" font-variant="normal" font-weight="400" font-stretch="normal" font-size="41" text-anchor="start" direction="ltr" writing-mode="lr-tb" unicode-bidi="normal" text-decoration="none" transform="matrix(6.12323e-17 -1 1 6.12323e-17 5231.04 1347)">581</text></g><g clip-path="url(#clip46)"><text fill="#595959" fill-opacity="1" font-family="Calibri,Calibri_MSFontService,sans-serif" font-style="normal" font-variant="normal" font-weight="400" font-stretch="normal" font-size="41" text-anchor="start" direction="ltr" writing-mode="lr-tb" unicode-bidi="normal" text-decoration="none" transform="matrix(6.12323e-17 -1 1 6.12323e-17 5282.42 1347)">601</text></g><g clip-path="url(#clip47)"><text fill="#595959" fill-opacity="1" font-family="Calibri,Calibri_MSFontService,sans-serif" font-style="normal" font-variant="normal" font-weight="400" font-stretch="normal" font-size="41" text-anchor="start" direction="ltr" writing-mode="lr-tb" unicode-bidi="normal" text-decoration="none" transform="matrix(6.12323e-17 -1 1 6.12323e-17 5333.8 1347)">621</text></g><g clip-path="url(#clip48)"><text fill="#595959" fill-opacity="1" font-family="Calibri,Calibri_MSFontService,sans-serif" font-style="normal" font-variant="normal" font-weight="400" font-stretch="normal" font-size="41" text-anchor="start" direction="ltr" writing-mode="lr-tb" unicode-bidi="normal" text-decoration="none" transform="matrix(6.12323e-17 -1 1 6.12323e-17 5385.18 1347)">641</text></g><g clip-path="url(#clip49)"><text fill="#595959" fill-opacity="1" font-family="Calibri,Calibri_MSFontService,sans-serif" font-style="normal" font-variant="normal" font-weight="400" font-stretch="normal" font-size="41" text-anchor="start" direction="ltr" writing-mode="lr-tb" unicode-bidi="normal" text-decoration="none" transform="matrix(6.12323e-17 -1 1 6.12323e-17 5436.57 1347)">661</text></g><g clip-path="url(#clip50)"><text fill="#595959" fill-opacity="1" font-family="Calibri,Calibri_MSFontService,sans-serif" font-style="normal" font-variant="normal" font-weight="400" font-stretch="normal" font-size="41" text-anchor="start" direction="ltr" writing-mode="lr-tb" unicode-bidi="normal" text-decoration="none" transform="matrix(6.12323e-17 -1 1 6.12323e-17 5487.95 1347)">681</text></g><g clip-path="url(#clip51)"><text fill="#595959" fill-opacity="1" font-family="Calibri,Calibri_MSFontService,sans-serif" font-style="normal" font-variant="normal" font-weight="400" font-stretch="normal" font-size="41" text-anchor="start" direction="ltr" writing-mode="lr-tb" unicode-bidi="normal" text-decoration="none" transform="matrix(6.12323e-17 -1 1 6.12323e-17 5539.33 1347)">701</text></g><g clip-path="url(#clip52)"><text fill="#595959" fill-opacity="1" font-family="Calibri,Calibri_MSFontService,sans-serif" font-style="normal" font-variant="normal" font-weight="400" font-stretch="normal" font-size="41" text-anchor="start" direction="ltr" writing-mode="lr-tb" unicode-bidi="normal" text-decoration="none" transform="matrix(6.12323e-17 -1 1 6.12323e-17 5590.71 1347)">721</text></g><g clip-path="url(#clip53)"><text fill="#595959" fill-opacity="1" font-family="Calibri,Calibri_MSFontService,sans-serif" font-style="normal" font-variant="normal" font-weight="400" font-stretch="normal" font-size="41" text-anchor="start" direction="ltr" writing-mode="lr-tb" unicode-bidi="normal" text-decoration="none" transform="matrix(6.12323e-17 -1 1 6.12323e-17 5642.09 1347)">741</text></g><g clip-path="url(#clip54)"><text fill="#595959" fill-opacity="1" font-family="Calibri,Calibri_MSFontService,sans-serif" font-style="normal" font-variant="normal" font-weight="400" font-stretch="normal" font-size="41" text-anchor="start" direction="ltr" writing-mode="lr-tb" unicode-bidi="normal" text-decoration="none" transform="matrix(6.12323e-17 -1 1 6.12323e-17 5693.47 1347)">761</text></g><g clip-path="url(#clip55)"><text fill="#595959" fill-opacity="1" font-family="Calibri,Calibri_MSFontService,sans-serif" font-style="normal" font-variant="normal" font-weight="400" font-stretch="normal" font-size="41" text-anchor="start" direction="ltr" writing-mode="lr-tb" unicode-bidi="normal" text-decoration="none" transform="matrix(6.12323e-17 -1 1 6.12323e-17 5744.85 1347)">781</text></g><g clip-path="url(#clip56)"><text fill="#595959" fill-opacity="1" font-family="Calibri,Calibri_MSFontService,sans-serif" font-style="normal" font-variant="normal" font-weight="400" font-stretch="normal" font-size="41" text-anchor="start" direction="ltr" writing-mode="lr-tb" unicode-bidi="normal" text-decoration="none" transform="matrix(6.12323e-17 -1 1 6.12323e-17 5796.23 1347)">801</text></g><g clip-path="url(#clip57)"><text fill="#595959" fill-opacity="1" font-family="Calibri,Calibri_MSFontService,sans-serif" font-style="normal" font-variant="normal" font-weight="400" font-stretch="normal" font-size="41" text-anchor="start" direction="ltr" writing-mode="lr-tb" unicode-bidi="normal" text-decoration="none" transform="matrix(6.12323e-17 -1 1 6.12323e-17 5847.61 1347)">821</text></g><g clip-path="url(#clip58)"><text fill="#595959" fill-opacity="1" font-family="Calibri,Calibri_MSFontService,sans-serif" font-style="normal" font-variant="normal" font-weight="400" font-stretch="normal" font-size="41" text-anchor="start" direction="ltr" writing-mode="lr-tb" unicode-bidi="normal" text-decoration="none" transform="matrix(6.12323e-17 -1 1 6.12323e-17 5899 1347)">841</text></g><g clip-path="url(#clip59)"><text fill="#595959" fill-opacity="1" font-family="Calibri,Calibri_MSFontService,sans-serif" font-style="normal" font-variant="normal" font-weight="400" font-stretch="normal" font-size="41" text-anchor="start" direction="ltr" writing-mode="lr-tb" unicode-bidi="normal" text-decoration="none" transform="matrix(6.12323e-17 -1 1 6.12323e-17 5950.38 1347)">861</text></g><g clip-path="url(#clip60)"><text fill="#595959" fill-opacity="1" font-family="Calibri,Calibri_MSFontService,sans-serif" font-style="normal" font-variant="normal" font-weight="400" font-stretch="normal" font-size="41" text-anchor="start" direction="ltr" writing-mode="lr-tb" unicode-bidi="normal" text-decoration="none" transform="matrix(6.12323e-17 -1 1 6.12323e-17 6001.76 1347)">881</text></g><g clip-path="url(#clip61)"><text fill="#595959" fill-opacity="1" font-family="Calibri,Calibri_MSFontService,sans-serif" font-style="normal" font-variant="normal" font-weight="700" font-stretch="normal" font-size="46" text-anchor="start" direction="ltr" writing-mode="lr-tb" unicode-bidi="normal" text-decoration="none" transform="matrix(6.12323e-17 -1 1 6.12323e-17 3609.83 968)">Normalized score</text></g><g clip-path="url(#clip62)"><text fill="#595959" fill-opacity="1" font-family="Calibri,Calibri_MSFontService,sans-serif" font-style="normal" font-variant="normal" font-weight="700" font-stretch="normal" font-size="46" text-anchor="start" direction="ltr" writing-mode="lr-tb" unicode-bidi="normal" text-decoration="none" transform="matrix(1 0 0 1 4793.42 1405)">Episode</text></g><g clip-path="url(#clip63)"><text fill="#595959" fill-opacity="1" font-family="Calibri,Calibri_MSFontService,sans-serif" font-style="normal" font-variant="normal" font-weight="700" font-stretch="normal" font-size="64" text-anchor="start" direction="ltr" writing-mode="lr-tb" unicode-bidi="normal" text-decoration="none" transform="matrix(1 0 0 1 4711.49 272)">Score</text></g><g clip-path="url(#clip64)"><path d="M4429 1513 4517 1513" stroke="#4472C4" stroke-width="10.3125" stroke-linecap="round" stroke-linejoin="round" stroke-miterlimit="10" stroke-opacity="1" fill="none" fill-rule="evenodd"/></g><g clip-path="url(#clip65)"><text fill="#595959" fill-opacity="1" font-family="Calibri,Calibri_MSFontService,sans-serif" font-style="normal" font-variant="normal" font-weight="400" font-stretch="normal" font-size="41" text-anchor="start" direction="ltr" writing-mode="lr-tb" unicode-bidi="normal" text-decoration="none" transform="matrix(1 0 0 1 4525.93 1523)">Intrinsic score</text></g><g clip-path="url(#clip66)"><path d="M4819 1513 4907 1513" stroke="#ED7D31" stroke-width="10.3125" stroke-linecap="round" stroke-linejoin="round" stroke-miterlimit="10" stroke-opacity="1" fill="none" fill-rule="evenodd"/></g><g clip-path="url(#clip67)"><text fill="#595959" fill-opacity="1" font-family="Calibri,Calibri_MSFontService,sans-serif" font-style="normal" font-variant="normal" font-weight="400" font-stretch="normal" font-size="41" text-anchor="start" direction="ltr" writing-mode="lr-tb" unicode-bidi="normal" text-decoration="none" transform="matrix(1 0 0 1 4916.25 1523)">Extrinsic score</text></g><rect x="3509.5" y="176.5" width="2551" height="1403" stroke="#D9D9D9" stroke-width="3.4375" stroke-linecap="butt" stroke-linejoin="round" stroke-miterlimit="10" stroke-opacity="1" fill="none"/></g></svg>