<svg width="2865" height="1641" xmlns="http://www.w3.org/2000/svg" xmlns:xlink="http://www.w3.org/1999/xlink" xml:space="preserve" overflow="hidden"><defs><clipPath id="clip0"><rect x="3180" y="352" width="2865" height="1641"/></clipPath><clipPath id="clip1"><rect x="3183" y="357" width="2857" height="1632"/></clipPath><clipPath id="clip2"><rect x="3183" y="357" width="2857" height="1632"/></clipPath><clipPath id="clip3"><rect x="3400" y="527" width="2593" height="1144"/></clipPath><clipPath id="clip4"><rect x="3400" y="527" width="2593" height="1144"/></clipPath><clipPath id="clip5"><rect x="3183" y="357" width="2857" height="1632"/></clipPath><clipPath id="clip6"><rect x="3183" y="357" width="2857" height="1632"/></clipPath><clipPath id="clip7"><rect x="3183" y="357" width="2857" height="1632"/></clipPath><clipPath id="clip8"><rect x="3183" y="357" width="2857" height="1632"/></clipPath><clipPath id="clip9"><rect x="3183" y="357" width="2857" height="1632"/></clipPath><clipPath id="clip10"><rect x="3183" y="357" width="2857" height="1632"/></clipPath><clipPath id="clip11"><rect x="3183" y="357" width="2857" height="1632"/></clipPath><clipPath id="clip12"><rect x="3183" y="357" width="2857" height="1632"/></clipPath><clipPath id="clip13"><rect x="3183" y="357" width="2857" height="1632"/></clipPath><clipPath id="clip14"><rect x="3183" y="357" width="2857" height="1632"/></clipPath><clipPath id="clip15"><rect x="3183" y="357" width="2857" height="1632"/></clipPath><clipPath id="clip16"><rect x="3183" y="357" width="2857" height="1632"/></clipPath><clipPath id="clip17"><rect x="3183" y="357" width="2857" height="1632"/></clipPath><clipPath id="clip18"><rect x="3183" y="357" width="2857" height="1632"/></clipPath><clipPath id="clip19"><rect x="3183" y="357" width="2857" height="1632"/></clipPath><clipPath id="clip20"><rect x="3183" y="357" width="2857" height="1632"/></clipPath><clipPath id="clip21"><rect x="3183" y="357" width="2857" height="1632"/></clipPath><clipPath id="clip22"><rect x="3183" y="357" width="2857" height="1632"/></clipPath><clipPath id="clip23"><rect x="3183" y="357" width="2857" height="1632"/></clipPath><clipPath id="clip24"><rect x="3183" y="357" width="2857" height="1632"/></clipPath><clipPath id="clip25"><rect x="3183" y="357" width="2857" height="1632"/></clipPath><clipPath id="clip26"><rect x="3183" y="357" width="2857" height="1632"/></clipPath><clipPath id="clip27"><rect x="3183" y="357" width="2857" height="1632"/></clipPath><clipPath id="clip28"><rect x="3183" y="357" width="2857" height="1632"/></clipPath><clipPath id="clip29"><rect x="3183" y="357" width="2857" height="1632"/></clipPath><clipPath id="clip30"><rect x="3183" y="357" width="2857" height="1632"/></clipPath><clipPath id="clip31"><rect x="3183" y="357" width="2857" height="1632"/></clipPath><clipPath id="clip32"><rect x="3183" y="357" width="2857" height="1632"/></clipPath><clipPath id="clip33"><rect x="3183" y="357" width="2857" height="1632"/></clipPath><clipPath id="clip34"><rect x="3183" y="357" width="2857" height="1632"/></clipPath><clipPath id="clip35"><rect x="3183" y="357" width="2857" height="1632"/></clipPath><clipPath id="clip36"><rect x="3183" y="357" width="2857" height="1632"/></clipPath><clipPath id="clip37"><rect x="3183" y="357" width="2857" height="1632"/></clipPath><clipPath id="clip38"><rect x="3183" y="357" width="2857" height="1632"/></clipPath><clipPath id="clip39"><rect x="3183" y="357" width="2857" height="1632"/></clipPath><clipPath id="clip40"><rect x="3183" y="357" width="2857" height="1632"/></clipPath><clipPath id="clip41"><rect x="3183" y="357" width="2857" height="1632"/></clipPath><clipPath id="clip42"><rect x="3183" y="357" width="2857" height="1632"/></clipPath><clipPath id="clip43"><rect x="3183" y="357" width="2857" height="1632"/></clipPath><clipPath id="clip44"><rect x="3183" y="357" width="2857" height="1632"/></clipPath><clipPath id="clip45"><rect x="3183" y="357" width="2857" height="1632"/></clipPath><clipPath id="clip46"><rect x="3183" y="357" width="2857" height="1632"/></clipPath><clipPath id="clip47"><rect x="3183" y="357" width="2857" height="1632"/></clipPath><clipPath id="clip48"><rect x="3183" y="357" width="2857" height="1632"/></clipPath><clipPath id="clip49"><rect x="3183" y="357" width="2857" height="1632"/></clipPath><clipPath id="clip50"><rect x="3183" y="357" width="2857" height="1632"/></clipPath><clipPath id="clip51"><rect x="3183" y="357" width="2857" height="1632"/></clipPath><clipPath id="clip52"><rect x="3183" y="357" width="2857" height="1632"/></clipPath><clipPath id="clip53"><rect x="3183" y="357" width="2857" height="1632"/></clipPath><clipPath id="clip54"><rect x="3183" y="357" width="2857" height="1632"/></clipPath><clipPath id="clip55"><rect x="3183" y="357" width="2857" height="1632"/></clipPath><clipPath id="clip56"><rect x="3183" y="357" width="2857" height="1632"/></clipPath><clipPath id="clip57"><rect x="3183" y="357" width="2857" height="1632"/></clipPath><clipPath id="clip58"><rect x="3183" y="357" width="2857" height="1632"/></clipPath><clipPath id="clip59"><rect x="3183" y="357" width="2857" height="1632"/></clipPath><clipPath id="clip60"><rect x="3183" y="357" width="2857" height="1632"/></clipPath><clipPath id="clip61"><rect x="3183" y="357" width="2857" height="1632"/></clipPath><clipPath id="clip62"><rect x="3183" y="357" width="2857" height="1632"/></clipPath><clipPath id="clip63"><rect x="3183" y="357" width="2857" height="1632"/></clipPath><clipPath id="clip64"><rect x="3183" y="357" width="2857" height="1632"/></clipPath><clipPath id="clip65"><rect x="3183" y="357" width="2857" height="1632"/></clipPath><clipPath id="clip66"><rect x="3183" y="357" width="2857" height="1632"/></clipPath><clipPath id="clip67"><rect x="3183" y="357" width="2857" height="1632"/></clipPath><clipPath id="clip68"><rect x="3183" y="357" width="2857" height="1632"/></clipPath><clipPath id="clip69"><rect x="3183" y="357" width="2857" height="1632"/></clipPath><clipPath id="clip70"><rect x="3183" y="357" width="2857" height="1632"/></clipPath><clipPath id="clip71"><rect x="3183" y="357" width="2857" height="1632"/></clipPath></defs><g clip-path="url(#clip0)" transform="translate(-3180 -352)"><rect x="3183" y="358" width="2858" height="1631" fill="#FFFFFF" fill-opacity="1"/><g clip-path="url(#clip1)"><path d="M3400.5 1554.55 5990.5 1554.55M3400.5 1440.55 5990.5 1440.55M3400.5 1326.54 5990.5 1326.54M3400.5 1212.54 5990.5 1212.54M3400.5 1097.54 5990.5 1097.54M3400.5 983.532 5990.5 983.532M3400.5 869.529 5990.5 869.529M3400.5 755.525 5990.5 755.525M3400.5 641.521 5990.5 641.521M3400.5 527.5 5990.5 527.5" stroke="#D9D9D9" stroke-width="3.4375" stroke-linecap="butt" stroke-linejoin="round" stroke-miterlimit="10" stroke-opacity="1" fill="none" fill-rule="nonzero"/></g><g clip-path="url(#clip2)"><path d="M3400.5 1668.5 5990.5 1668.5" stroke="#D9D9D9" stroke-width="3.4375" stroke-linecap="butt" stroke-linejoin="round" stroke-miterlimit="10" stroke-opacity="1" fill="none" fill-rule="evenodd"/></g><g clip-path="url(#clip3)"><path d="M3403.5 1623.55 3408.61 1651.55 3413.61 1653.55 3419.61 1657.55 3424.61 1659.55 3429.61 1654.55 3435.61 1660.55 3440.61 1653.55 3445.61 1641.55 3451.61 1665.55 3456.61 1665.55 3462.61 1663.55 3467.61 1656.55 3472.61 1668.5 3478.61 1668.5 3483.61 1668.5 3488.61 1668.5 3494.61 1668.55 3499.61 1667.55 3504.62 1668.5 3510.62 1668.5 3515.62 1668.5 3520.62 1668.5 3526.62 1668.5 3531.62 1668.5 3537.62 1668.5 3542.62 1668.5 3547.62 1668.5 3553.62 1668.5 3558.62 1668.5 3563.62 1668.5 3569.62 1668.5 3574.62 1667.55 3579.62 1668.5 3585.62 1668.5 3590.62 1668.5 3596.62 1668.5 3601.62 1668.5 3606.62 1668.5 3612.62 1668.5 3617.62 1668.5 3622.62 1668.5 3628.62 1668.5 3633.62 1668.5 3638.62 1668.5 3644.62 1668.5 3649.62 1668.5 3655.62 1668.5 3660.62 1668.5 3665.62 1668.5 3671.62 1668.5 3676.62 1668.5 3681.62 1668.5 3687.62 1668.5 3692.62 1668.5 3697.62 1668.5 3703.62 1668.5 3708.62 1668.5 3714.62 1668.5 3719.62 1668.5 3724.62 1668.5 3730.62 1668.5 3735.62 1668.5 3740.62 1668.5 3746.62 1668.5 3751.62 1668.5 3756.62 1668.5 3762.62 1668.5 3767.62 1668.5 3773.62 1668.5 3778.62 1668.5 3783.62 1668.5 3789.62 1668.5 3794.62 1668.5 3799.62 1668.5 3805.62 1668.5 3810.63 1668.5 3815.63 1668.5 3821.63 1668.5 3826.63 1668.5 3831.63 1668.5 3837.63 1668.5 3842.63 1668.5 3848.63 1668.5 3853.63 1668.5 3858.63 1668.5 3864.63 1668.5 3869.63 1668.5 3874.63 1668.5 3880.63 1668.5 3885.63 1668.5 3890.63 1668.5 3896.63 1668.5 3901.63 1668.5 3907.63 1668.5 3912.63 1668.5 3917.63 1668.5 3923.63 1668.5 3928.63 1668.5 3933.63 1668.5 3939.63 1668.5 3944.63 1668.5 3949.63 1668.5 3955.63 1668.5 3960.63 1668.5 3966.63 1668.5 3971.63 1668.5 3976.63 1668.5 3982.63 1668.5 3987.63 1668.5 3992.63 1668.5 3998.63 1668.5 4003.63 1668.5 4008.63 1668.5 4014.63 1666.55 4019.63 1668.5 4025.63 1668.5 4030.63 1668.5 4035.63 1668.5 4041.63 1668.5 4046.63 1668.5 4051.63 1668.5 4057.63 1668.5 4062.63 1668.5 4067.63 1668.5 4073.63 1668.5 4078.63 1668.5 4084.63 1668.5 4089.63 1668.5 4094.63 1668.5 4100.63 1668.5 4105.63 1668.5 4110.64 1668.5 4116.64 1668.5 4121.64 1668.5 4126.64 1668.5 4132.64 1668.5 4137.64 1668.5 4142.64 1668.5 4148.64 1668.5 4153.64 1661.55 4159.64 1668.5 4164.64 1668.5 4169.64 1668.5 4175.64 1668.5 4180.64 1668.55 4185.64 1627.55 4191.64 1668.5 4196.64 1668.5 4201.64 1666.55 4207.64 1668.5 4212.64 1655.55 4218.64 1668.5 4223.64 1668.5 4228.64 1648.55 4234.64 1668.5 4239.64 1668.5 4244.64 1668.5 4250.64 1668.5 4255.64 1668.5 4260.64 1668.5 4266.64 1668.55 4271.64 1668.5 4277.64 1668.5 4282.64 1668.5 4287.64 1668.5 4293.64 1668.5 4298.64 1668.5 4303.64 1668.5 4309.64 1668.5 4314.64 1668.5 4319.64 1668.5 4325.64 1668.55 4330.64 1668.5 4336.64 1668.5 4341.64 1668.55 4346.64 1668.5 4352.64 1668.5 4357.64 1668.5 4362.64 1668.55 4368.64 1648.55 4373.64 1668.5 4378.64 1668.5 4384.64 1668.5 4389.64 1668.5 4395.64 1664.55 4400.64 1668.55 4405.64 1668.55 4411.65 1668.5 4416.65 1668.5 4421.65 1668.5 4427.65 1668.5 4432.65 1668.5 4437.65 1668.5 4443.65 1668.5 4448.65 1668.5 4453.65 1668.5 4459.65 1668.5 4464.65 1668.5 4470.65 1657.55 4475.65 1668.5 4480.65 1666.55 4486.65 1668.55 4491.65 1668.5 4496.65 1668.5 4502.65 1668.5 4507.65 1668.5 4512.65 1668.5 4518.65 1668.5 4523.65 1668.55 4529.65 1668.5 4534.65 1668.5 4539.65 1668.5 4545.65 1661.55 4550.65 1668.55 4555.65 1668.5 4561.65 1668.5 4566.65 1668.5 4571.65 1668.5 4577.65 1668.5 4582.65 1668.5 4588.65 1668.5 4593.65 1668.5 4598.65 1662.55 4604.65 1668.5 4609.65 1668.5 4614.65 1668.55 4620.65 1668.5 4625.65 1668.5 4630.65 1668.5 4636.65 1668.5 4641.65 1668.5 4647.65 1605.55 4652.65 1668.5 4657.65 1668.5 4663.65 1668.55 4668.65 1663.55 4673.65 1668.5 4679.65 1668.5 4684.65 1665.55 4689.65 1668.5 4695.65 1668.55 4700.65 1668.5 4706.65 1668.5 4711.65 1668.5 4716.65 1668.5 4722.66 1668.5 4727.66 1624.55 4732.66 1668.5 4738.66 1668.5 4743.66 1667.55 4748.66 1668.5 4754.66 1668.5 4759.66 1668.5 4764.66 1668.5 4770.66 1668.5 4775.66 1668.5 4781.66 1668.55 4786.66 1668.55 4791.66 1664.55 4797.66 1668.5 4802.66 1668.5 4807.66 1658.55 4813.66 1668.5 4818.66 1668.5 4823.66 1565.55 4829.66 1663.55 4834.66 1668.5 4840.66 1668.5 4845.66 1647.55 4850.66 1660.55 4856.66 1663.55 4861.66 1610.55 4866.66 1667.55 4872.66 1655.55 4877.66 1591.55 4882.66 1567.55 4888.66 1650.55 4893.66 1612.55 4899.66 1644.55 4904.66 1642.55 4909.66 1656.55 4915.66 1651.55 4920.66 1667.55 4925.66 1660.55 4931.66 1631.55 4936.66 1668.5 4941.66 1668.5 4947.66 1314.54 4952.66 1665.55 4958.66 1663.55 4963.66 1660.55 4968.66 1653.55 4974.66 1668.5 4979.66 1652.55 4984.66 1662.55 4990.66 1666.55 4995.66 1150.54 5000.66 1665.55 5006.66 1668.5 5011.66 1667.55 5017.67 1668.5 5022.67 1663.55 5027.67 1630.55 5033.67 1664.55 5038.67 1656.55 5043.67 1663.55 5049.67 1613.55 5054.67 1654.55 5059.67 1658.55 5065.67 1562.55 5070.67 1648.55 5075.67 1638.55 5081.67 1660.55 5086.67 1662.55 5092.67 1657.55 5097.67 1668.55 5102.67 1667.55 5108.67 1668.55 5113.67 1668.55 5118.67 1657.55 5124.67 1509.55 5129.67 1665.55 5134.67 1668.5 5140.67 1668.5 5145.67 1668.5 5151.67 1642.55 5156.67 1668.5 5161.67 1668.5 5167.67 1668.5 5172.67 1668.5 5177.67 1668.5 5183.67 1668.5 5188.67 1668.5 5193.67 1668.5 5199.67 1668.5 5204.67 1668.5 5210.67 1663.55 5215.67 1668.5 5220.67 1668.5 5226.67 1668.5 5231.67 1668.5 5236.67 1668.5 5242.67 1668.5 5247.67 1668.5 5252.67 1668.5 5258.67 1668.5 5263.67 1668.5 5269.67 1668.5 5274.67 1668.5 5279.67 1668.5 5285.67 1668.5 5290.67 1668.5 5295.67 1668.5 5301.67 1668.5 5306.67 1668.5 5311.67 1668.5 5317.67 1668.5 5322.67 1668.5 5328.67 1668.5 5333.68 1668.5 5338.68 1668.5 5344.68 1668.5 5349.68 1668.55 5354.68 1636.55 5360.68 1668.5 5365.68 1658.55 5370.68 1668.5 5376.68 1668.5 5381.68 1668.5 5386.68 1668.5 5392.68 1659.55 5397.68 1668.5 5403.68 1668.55 5408.68 1663.55 5413.68 1667.55 5419.68 1668.5 5424.68 1658.55 5429.68 1659.55 5435.68 1668.5 5440.68 1668.5 5445.68 1668.55 5451.68 1668.5 5456.68 1668.55 5462.68 1667.55 5467.68 1668.5 5472.68 1668.5 5478.68 1661.55 5483.68 1663.55 5488.68 1668.5 5494.68 1666.55 5499.68 1668.55 5504.68 1665.55 5510.68 1662.55 5515.68 1634.55 5521.68 1647.55 5526.68 1668.5 5531.68 1668.5 5537.68 1667.55 5542.68 1668.5 5547.68 1668.5 5553.68 1668.5 5558.68 1668.5 5563.68 1629.55 5569.68 1622.55 5574.68 1627.55 5580.68 1668.5 5585.68 1668.5 5590.68 1668.5 5596.68 1668.5 5601.68 1664.55 5606.68 1625.55 5612.68 1668.5 5617.68 1668.5 5622.68 1668.5 5628.69 1668.5 5633.69 1668.5 5639.69 1668.5 5644.69 1668.5 5649.69 1668.5 5655.69 1668.5 5660.69 1668.5 5665.69 1668.5 5671.69 1662.55 5676.69 1668.5 5681.69 1668.5 5687.69 1668.5 5692.69 1665.55 5697.69 1668.5 5703.69 1668.5 5708.69 1668.5 5714.69 1668.5 5719.69 1667.55 5724.69 1668.5 5730.69 1668.5 5735.69 1668.5 5740.69 1652.55 5746.69 1668.5 5751.69 1668.5 5756.69 1668.5 5762.69 1668.5 5767.69 1668.5 5773.69 1668.5 5778.69 1668.5 5783.69 1668.5 5789.69 1668.5 5794.69 1668.5 5799.69 1668.5 5805.69 1668.5 5810.69 1668.5 5815.69 1668.5 5821.69 1668.5 5826.69 1668.5 5832.69 1668.5 5837.69 1668.5 5842.69 1668.5 5848.69 1668.5 5853.69 1668.5 5858.69 1662.55 5864.69 1668.5 5869.69 1668.5 5874.69 1668.5 5880.69 1668.5 5885.69 1668.5 5891.69 1668.5 5896.69 1668.5 5901.69 1668.5 5907.69 1668.5 5912.69 1668.5 5917.69 1668.5 5923.69 1668.5 5928.69 1668.5 5933.69 1668.5 5939.7 1668.5 5944.7 1668.5 5950.7 1668.5 5955.7 1668.5 5960.7 1668.5 5966.7 1668.5 5971.7 1668.5 5976.7 1054.53 5982.7 1668.5 5987.5 527.5" stroke="#4472C4" stroke-width="11.4583" stroke-linecap="round" stroke-linejoin="round" stroke-miterlimit="10" stroke-opacity="1" fill="none" fill-rule="nonzero"/></g><g clip-path="url(#clip4)"><path d="M3403 1638.05 3408.11 1631.05 3414.11 1657.05 3419.11 1650.05 3424.11 1654.05 3430.11 1648.05 3435.11 1650.05 3441.11 1638.05 3446.11 1636.05 3451.11 1629.05 3457.11 1631.05 3462.11 1634.05 3467.11 1645.05 3473.11 1641.05 3478.11 1650.05 3483.11 1641.05 3489.11 1657.05 3494.11 1654.05 3500.11 1652.05 3505.11 1627.05 3510.12 1631.05 3516.12 1606.05 3521.12 1650.05 3526.12 1664.05 3532.12 1650.05 3537.12 1650.05 3542.12 1657.05 3548.12 1650.05 3553.12 1650.05 3559.12 1629.05 3564.12 1654.05 3569.12 1643.05 3575.12 1634.05 3580.12 1641.05 3585.12 1650.05 3591.12 1657.05 3596.12 1661.05 3601.12 1664.05 3607.12 1652.05 3612.12 1654.05 3618.12 1664.05 3623.12 1657.05 3628.12 1664.05 3634.12 1650.05 3639.12 1664.05 3644.12 1668 3650.12 1666.05 3655.12 1664.05 3660.12 1664.05 3666.12 1661.05 3671.12 1657.05 3676.12 1657.05 3682.12 1650.05 3687.12 1659.05 3693.12 1650.05 3698.12 1664.05 3703.12 1645.05 3709.12 1661.05 3714.12 1650.05 3719.12 1659.05 3725.12 1659.05 3730.12 1664.05 3735.12 1643.05 3741.12 1668 3746.12 1664.05 3752.12 1666.05 3757.12 1666.05 3762.12 1641.05 3768.12 1650.05 3773.12 1661.05 3778.12 1631.05 3784.12 1664.05 3789.12 1668 3794.12 1666.05 3800.12 1631.05 3805.12 1664.05 3811.13 1661.05 3816.13 1664.05 3821.13 1657.05 3827.13 1659.05 3832.13 1659.05 3837.13 1661.05 3843.13 1659.05 3848.13 1661.05 3853.13 1654.05 3859.13 1641.05 3864.13 1664.05 3870.13 1659.05 3875.13 1661.05 3880.13 1652.05 3886.13 1666.05 3891.13 1661.05 3896.13 1661.05 3902.13 1641.05 3907.13 1659.05 3912.13 1661.05 3918.13 1650.05 3923.13 1650.05 3929.13 1659.05 3934.13 1666.05 3939.13 1659.05 3945.13 1664.05 3950.13 1661.05 3955.13 1661.05 3961.13 1664.05 3966.13 1654.05 3971.13 1654.05 3977.13 1664.05 3982.13 1657.05 3987.13 1666.05 3993.13 1664.05 3998.13 1664.05 4004.13 1666.05 4009.13 1654.05 4014.13 1608.05 4020.13 1661.05 4025.13 1659.05 4030.13 1617.05 4036.13 1648.05 4041.13 1664.05 4046.13 1666.05 4052.13 1657.05 4057.13 1664.05 4063.13 1643.05 4068.13 1652.05 4073.13 1627.05 4079.13 1666.05 4084.13 1648.05 4089.13 1657.05 4095.13 1648.05 4100.13 1659.05 4105.13 1657.05 4111.13 1606.05 4116.14 1659.05 4122.14 1659.05 4127.14 1661.05 4132.14 1634.05 4138.14 1654.05 4143.14 1629.05 4148.14 1650.05 4154.14 1583.05 4159.14 1645.05 4164.14 1645.05 4170.14 1657.05 4175.14 1659.05 4181.14 1606.05 4186.14 1555.05 4191.14 1617.05 4197.14 1643.05 4202.14 1569.05 4207.14 1518.05 4213.14 1573.05 4218.14 1629.05 4223.14 1608.05 4229.14 1450.05 4234.14 1659.05 4240.14 1643.05 4245.14 1617.05 4250.14 1652.05 4256.14 1652.05 4261.14 1606.05 4266.14 1643.05 4272.14 1645.05 4277.14 1631.05 4282.14 1638.05 4288.14 1606.05 4293.14 1599.05 4298.14 1583.05 4304.14 1603.05 4309.14 1636.05 4315.14 1654.05 4320.14 1624.05 4325.14 1615.05 4331.14 1627.05 4336.14 1659.05 4341.14 1601.05 4347.14 1654.05 4352.14 1659.05 4357.14 1592.05 4363.14 1606.05 4368.14 1590.05 4374.14 1622.05 4379.14 1664.05 4384.14 1652.05 4390.14 1631.05 4395.14 1545.05 4400.14 1652.05 4406.14 1634.05 4411.15 1636.05 4416.15 1636.05 4422.15 1648.05 4427.15 1652.05 4433.15 1631.05 4438.15 1643.05 4443.15 1641.05 4449.15 1661.05 4454.15 1650.05 4459.15 1661.05 4465.15 1641.05 4470.15 1520.05 4475.15 1654.05 4481.15 1541.05 4486.15 1603.05 4492.15 1648.05 4497.15 1636.05 4502.15 1664.05 4508.15 1648.05 4513.15 1624.05 4518.15 1634.05 4524.15 1652.05 4529.15 1617.05 4534.15 1652.05 4540.15 1624.05 4545.15 1601.05 4551.15 1608.05 4556.15 1622.05 4561.15 1638.05 4567.15 1631.05 4572.15 1648.05 4577.15 1573.05 4583.15 1634.05 4588.15 1652.05 4593.15 1641.05 4599.15 1555.05 4604.15 1654.05 4609.15 1648.05 4615.15 1571.05 4620.15 1627.05 4626.15 1636.05 4631.15 1608.05 4636.15 1645.05 4642.15 1578.05 4647.15 1552.05 4652.15 1654.05 4658.15 1659.05 4663.15 1525.05 4668.15 1569.05 4674.15 1627.05 4679.15 1594.05 4685.15 1571.05 4690.15 1608.05 4695.15 1578.05 4701.15 1413.05 4706.15 1659.05 4711.15 1541.05 4717.15 1661.05 4722.15 1645.05 4727.16 1474.05 4733.16 1629.05 4738.16 1624.05 4744.16 1573.05 4749.16 1636.05 4754.16 1650.05 4760.16 1615.05 4765.16 1634.05 4770.16 1638.05 4776.16 1606.05 4781.16 1511.05 4786.16 1634.05 4792.16 1536.05 4797.16 1601.05 4803.16 1657.05 4808.16 1420.05 4813.16 1566.05 4819.16 1608.05 4824.16 1467.05 4829.16 1506.05 4835.16 1617.05 4840.16 1603.05 4845.16 1441.05 4851.16 1376.05 4856.16 1446.05 4862.16 1232.04 4867.16 1497.05 4872.16 1427.05 4878.16 1464.05 4883.16 1379.05 4888.16 1353.04 4894.16 1316.04 4899.16 1566.05 4904.16 1365.04 4910.16 1562.05 4915.16 1508.05 4920.16 1536.05 4926.16 1469.05 4931.16 1450.05 4937.16 1659.05 4942.16 1645.05 4947.16 1411.05 4953.16 1601.05 4958.16 1587.05 4963.16 1427.05 4969.16 1478.05 4974.16 1638.05 4979.16 1511.05 4985.16 1578.05 4990.16 1608.05 4996.16 1281.04 5001.16 1566.05 5006.16 1624.05 5012.16 1559.05 5017.16 1620.05 5022.17 1527.05 5028.17 1520.05 5033.17 1587.05 5038.17 1527.05 5044.17 1548.05 5049.17 1504.05 5055.17 1515.05 5060.17 1515.05 5065.17 1427.05 5071.17 1513.05 5076.17 1492.05 5081.17 1520.05 5087.17 1497.05 5092.17 1497.05 5097.17 1543.05 5103.17 1548.05 5108.17 1573.05 5114.17 1536.05 5119.17 1462.05 5124.17 1441.05 5130.17 1550.05 5135.17 1638.05 5140.17 1608.05 5146.17 1557.05 5151.17 1485.05 5156.17 1573.05 5162.17 1648.05 5167.17 1652.05 5173.17 1606.05 5178.17 1636.05 5183.17 1641.05 5189.17 1603.05 5194.17 1615.05 5199.17 1641.05 5205.17 1657.05 5210.17 1492.05 5215.17 1654.05 5221.17 1634.05 5226.17 1645.05 5231.17 1606.05 5237.17 1636.05 5242.17 1631.05 5248.17 1643.05 5253.17 1643.05 5258.17 1613.05 5264.17 1645.05 5269.17 1652.05 5274.17 1661.05 5280.17 1650.05 5285.17 1643.05 5290.17 1652.05 5296.17 1650.05 5301.17 1650.05 5307.17 1645.05 5312.17 1643.05 5317.17 1641.05 5323.17 1652.05 5328.17 1648.05 5333.18 1652.05 5339.18 1645.05 5344.18 1645.05 5349.18 1559.05 5355.18 1471.05 5360.18 1648.05 5366.18 1481.05 5371.18 1657.05 5376.18 1617.05 5382.18 1634.05 5387.18 1650.05 5392.18 1469.05 5398.18 1645.05 5403.18 1492.05 5408.18 1462.05 5414.18 1462.05 5419.18 1638.05 5425.18 1485.05 5430.18 1471.05 5435.18 1657.05 5441.18 1654.05 5446.18 1501.05 5451.18 1599.05 5457.18 1460.05 5462.18 1476.05 5467.18 1643.05 5473.18 1645.05 5478.18 1467.05 5484.18 1460.05 5489.18 1631.05 5494.18 1474.05 5500.18 1483.05 5505.18 1464.05 5510.18 1467.05 5516.18 1464.05 5521.18 1469.05 5526.18 1634.05 5532.18 1641.05 5537.18 1467.05 5542.18 1650.05 5548.18 1657.05 5553.18 1645.05 5559.18 1645.05 5564.18 1464.05 5569.18 1460.05 5575.18 1448.05 5580.18 1638.05 5585.18 1643.05 5591.18 1652.05 5596.18 1631.05 5601.18 1457.05 5607.18 1450.05 5612.18 1657.05 5618.18 1652.05 5623.18 1652.05 5628.18 1636.05 5634.19 1555.05 5639.19 1654.05 5644.19 1622.05 5650.19 1548.05 5655.19 1650.05 5660.19 1643.05 5666.19 1608.05 5671.19 1469.05 5677.19 1636.05 5682.19 1634.05 5687.19 1629.05 5693.19 1453.05 5698.19 1555.05 5703.19 1613.05 5709.19 1634.05 5714.19 1645.05 5719.19 1464.05 5725.19 1634.05 5730.19 1566.05 5736.19 1657.05 5741.19 1504.05 5746.19 1610.05 5752.19 1643.05 5757.19 1641.05 5762.19 1650.05 5768.19 1650.05 5773.19 1571.05 5778.19 1652.05 5784.19 1634.05 5789.19 1634.05 5795.19 1539.05 5800.19 1648.05 5805.19 1650.05 5811.19 1629.05 5816.19 1562.05 5821.19 1636.05 5827.19 1631.05 5832.19 1652.05 5837.19 1638.05 5843.19 1576.05 5848.19 1650.05 5853.19 1645.05 5859.19 1515.05 5864.19 1587.05 5870.19 1576.05 5875.19 1578.05 5880.19 1641.05 5886.19 1629.05 5891.19 1648.05 5896.19 1585.05 5902.19 1562.05 5907.19 1648.05 5912.19 1601.05 5918.19 1636.05 5923.19 1543.05 5929.19 1641.05 5934.19 1624.05 5939.19 1615.05 5945.2 1641.05 5950.2 1627.05 5955.2 1592.05 5961.2 1641.05 5966.2 1645.05 5971.2 1578.05 5977.2 1181.04 5982.2 1650.05 5988 527" stroke="#ED7D31" stroke-width="8.02083" stroke-linecap="round" stroke-linejoin="round" stroke-miterlimit="10" stroke-opacity="0.901961" fill="none" fill-rule="nonzero"/></g><g clip-path="url(#clip5)"><text fill="#595959" fill-opacity="1" font-family="Calibri,Calibri_MSFontService,sans-serif" font-style="normal" font-variant="normal" font-weight="400" font-stretch="normal" font-size="41" text-anchor="start" direction="ltr" writing-mode="lr-tb" unicode-bidi="normal" text-decoration="none" transform="matrix(1 0 0 1 3341.3 1679)">0</text></g><g clip-path="url(#clip6)"><text fill="#595959" fill-opacity="1" font-family="Calibri,Calibri_MSFontService,sans-serif" font-style="normal" font-variant="normal" font-weight="400" font-stretch="normal" font-size="41" text-anchor="start" direction="ltr" writing-mode="lr-tb" unicode-bidi="normal" text-decoration="none" transform="matrix(1 0 0 1 3310.11 1564)">0,1</text></g><g clip-path="url(#clip7)"><text fill="#595959" fill-opacity="1" font-family="Calibri,Calibri_MSFontService,sans-serif" font-style="normal" font-variant="normal" font-weight="400" font-stretch="normal" font-size="41" text-anchor="start" direction="ltr" writing-mode="lr-tb" unicode-bidi="normal" text-decoration="none" transform="matrix(1 0 0 1 3310.11 1450)">0,2</text></g><g clip-path="url(#clip8)"><text fill="#595959" fill-opacity="1" font-family="Calibri,Calibri_MSFontService,sans-serif" font-style="normal" font-variant="normal" font-weight="400" font-stretch="normal" font-size="41" text-anchor="start" direction="ltr" writing-mode="lr-tb" unicode-bidi="normal" text-decoration="none" transform="matrix(1 0 0 1 3310.11 1336)">0,3</text></g><g clip-path="url(#clip9)"><text fill="#595959" fill-opacity="1" font-family="Calibri,Calibri_MSFontService,sans-serif" font-style="normal" font-variant="normal" font-weight="400" font-stretch="normal" font-size="41" text-anchor="start" direction="ltr" writing-mode="lr-tb" unicode-bidi="normal" text-decoration="none" transform="matrix(1 0 0 1 3310.11 1222)">0,4</text></g><g clip-path="url(#clip10)"><text fill="#595959" fill-opacity="1" font-family="Calibri,Calibri_MSFontService,sans-serif" font-style="normal" font-variant="normal" font-weight="400" font-stretch="normal" font-size="41" text-anchor="start" direction="ltr" writing-mode="lr-tb" unicode-bidi="normal" text-decoration="none" transform="matrix(1 0 0 1 3310.11 1108)">0,5</text></g><g clip-path="url(#clip11)"><text fill="#595959" fill-opacity="1" font-family="Calibri,Calibri_MSFontService,sans-serif" font-style="normal" font-variant="normal" font-weight="400" font-stretch="normal" font-size="41" text-anchor="start" direction="ltr" writing-mode="lr-tb" unicode-bidi="normal" text-decoration="none" transform="matrix(1 0 0 1 3310.11 994)">0,6</text></g><g clip-path="url(#clip12)"><text fill="#595959" fill-opacity="1" font-family="Calibri,Calibri_MSFontService,sans-serif" font-style="normal" font-variant="normal" font-weight="400" font-stretch="normal" font-size="41" text-anchor="start" direction="ltr" writing-mode="lr-tb" unicode-bidi="normal" text-decoration="none" transform="matrix(1 0 0 1 3310.11 880)">0,7</text></g><g clip-path="url(#clip13)"><text fill="#595959" fill-opacity="1" font-family="Calibri,Calibri_MSFontService,sans-serif" font-style="normal" font-variant="normal" font-weight="400" font-stretch="normal" font-size="41" text-anchor="start" direction="ltr" writing-mode="lr-tb" unicode-bidi="normal" text-decoration="none" transform="matrix(1 0 0 1 3310.11 766)">0,8</text></g><g clip-path="url(#clip14)"><text fill="#595959" fill-opacity="1" font-family="Calibri,Calibri_MSFontService,sans-serif" font-style="normal" font-variant="normal" font-weight="400" font-stretch="normal" font-size="41" text-anchor="start" direction="ltr" writing-mode="lr-tb" unicode-bidi="normal" text-decoration="none" transform="matrix(1 0 0 1 3310.11 652)">0,9</text></g><g clip-path="url(#clip15)"><text fill="#595959" fill-opacity="1" font-family="Calibri,Calibri_MSFontService,sans-serif" font-style="normal" font-variant="normal" font-weight="400" font-stretch="normal" font-size="41" text-anchor="start" direction="ltr" writing-mode="lr-tb" unicode-bidi="normal" text-decoration="none" transform="matrix(1 0 0 1 3341.3 538)">1</text></g><g clip-path="url(#clip16)"><text fill="#595959" fill-opacity="1" font-family="Calibri,Calibri_MSFontService,sans-serif" font-style="normal" font-variant="normal" font-weight="400" font-stretch="normal" font-size="41" text-anchor="start" direction="ltr" writing-mode="lr-tb" unicode-bidi="normal" text-decoration="none" transform="matrix(6.12323e-17 -1 1 6.12323e-17 3416.97 1716)">1</text></g><g clip-path="url(#clip17)"><text fill="#595959" fill-opacity="1" font-family="Calibri,Calibri_MSFontService,sans-serif" font-style="normal" font-variant="normal" font-weight="400" font-stretch="normal" font-size="41" text-anchor="start" direction="ltr" writing-mode="lr-tb" unicode-bidi="normal" text-decoration="none" transform="matrix(6.12323e-17 -1 1 6.12323e-17 3470.59 1736)">11</text></g><g clip-path="url(#clip18)"><text fill="#595959" fill-opacity="1" font-family="Calibri,Calibri_MSFontService,sans-serif" font-style="normal" font-variant="normal" font-weight="400" font-stretch="normal" font-size="41" text-anchor="start" direction="ltr" writing-mode="lr-tb" unicode-bidi="normal" text-decoration="none" transform="matrix(6.12323e-17 -1 1 6.12323e-17 3524.21 1736)">21</text></g><g clip-path="url(#clip19)"><text fill="#595959" fill-opacity="1" font-family="Calibri,Calibri_MSFontService,sans-serif" font-style="normal" font-variant="normal" font-weight="400" font-stretch="normal" font-size="41" text-anchor="start" direction="ltr" writing-mode="lr-tb" unicode-bidi="normal" text-decoration="none" transform="matrix(6.12323e-17 -1 1 6.12323e-17 3577.84 1736)">31</text></g><g clip-path="url(#clip20)"><text fill="#595959" fill-opacity="1" font-family="Calibri,Calibri_MSFontService,sans-serif" font-style="normal" font-variant="normal" font-weight="400" font-stretch="normal" font-size="41" text-anchor="start" direction="ltr" writing-mode="lr-tb" unicode-bidi="normal" text-decoration="none" transform="matrix(6.12323e-17 -1 1 6.12323e-17 3631.46 1736)">41</text></g><g clip-path="url(#clip21)"><text fill="#595959" fill-opacity="1" font-family="Calibri,Calibri_MSFontService,sans-serif" font-style="normal" font-variant="normal" font-weight="400" font-stretch="normal" font-size="41" text-anchor="start" direction="ltr" writing-mode="lr-tb" unicode-bidi="normal" text-decoration="none" transform="matrix(6.12323e-17 -1 1 6.12323e-17 3685.08 1736)">51</text></g><g clip-path="url(#clip22)"><text fill="#595959" fill-opacity="1" font-family="Calibri,Calibri_MSFontService,sans-serif" font-style="normal" font-variant="normal" font-weight="400" font-stretch="normal" font-size="41" text-anchor="start" direction="ltr" writing-mode="lr-tb" unicode-bidi="normal" text-decoration="none" transform="matrix(6.12323e-17 -1 1 6.12323e-17 3738.7 1736)">61</text></g><g clip-path="url(#clip23)"><text fill="#595959" fill-opacity="1" font-family="Calibri,Calibri_MSFontService,sans-serif" font-style="normal" font-variant="normal" font-weight="400" font-stretch="normal" font-size="41" text-anchor="start" direction="ltr" writing-mode="lr-tb" unicode-bidi="normal" text-decoration="none" transform="matrix(6.12323e-17 -1 1 6.12323e-17 3792.33 1736)">71</text></g><g clip-path="url(#clip24)"><text fill="#595959" fill-opacity="1" font-family="Calibri,Calibri_MSFontService,sans-serif" font-style="normal" font-variant="normal" font-weight="400" font-stretch="normal" font-size="41" text-anchor="start" direction="ltr" writing-mode="lr-tb" unicode-bidi="normal" text-decoration="none" transform="matrix(6.12323e-17 -1 1 6.12323e-17 3845.95 1736)">81</text></g><g clip-path="url(#clip25)"><text fill="#595959" fill-opacity="1" font-family="Calibri,Calibri_MSFontService,sans-serif" font-style="normal" font-variant="normal" font-weight="400" font-stretch="normal" font-size="41" text-anchor="start" direction="ltr" writing-mode="lr-tb" unicode-bidi="normal" text-decoration="none" transform="matrix(6.12323e-17 -1 1 6.12323e-17 3899.57 1736)">91</text></g><g clip-path="url(#clip26)"><text fill="#595959" fill-opacity="1" font-family="Calibri,Calibri_MSFontService,sans-serif" font-style="normal" font-variant="normal" font-weight="400" font-stretch="normal" font-size="41" text-anchor="start" direction="ltr" writing-mode="lr-tb" unicode-bidi="normal" text-decoration="none" transform="matrix(6.12323e-17 -1 1 6.12323e-17 3953.19 1757)">101</text></g><g clip-path="url(#clip27)"><text fill="#595959" fill-opacity="1" font-family="Calibri,Calibri_MSFontService,sans-serif" font-style="normal" font-variant="normal" font-weight="400" font-stretch="normal" font-size="41" text-anchor="start" direction="ltr" writing-mode="lr-tb" unicode-bidi="normal" text-decoration="none" transform="matrix(6.12323e-17 -1 1 6.12323e-17 4006.81 1757)">111</text></g><g clip-path="url(#clip28)"><text fill="#595959" fill-opacity="1" font-family="Calibri,Calibri_MSFontService,sans-serif" font-style="normal" font-variant="normal" font-weight="400" font-stretch="normal" font-size="41" text-anchor="start" direction="ltr" writing-mode="lr-tb" unicode-bidi="normal" text-decoration="none" transform="matrix(6.12323e-17 -1 1 6.12323e-17 4060.44 1757)">121</text></g><g clip-path="url(#clip29)"><text fill="#595959" fill-opacity="1" font-family="Calibri,Calibri_MSFontService,sans-serif" font-style="normal" font-variant="normal" font-weight="400" font-stretch="normal" font-size="41" text-anchor="start" direction="ltr" writing-mode="lr-tb" unicode-bidi="normal" text-decoration="none" transform="matrix(6.12323e-17 -1 1 6.12323e-17 4114.06 1757)">131</text></g><g clip-path="url(#clip30)"><text fill="#595959" fill-opacity="1" font-family="Calibri,Calibri_MSFontService,sans-serif" font-style="normal" font-variant="normal" font-weight="400" font-stretch="normal" font-size="41" text-anchor="start" direction="ltr" writing-mode="lr-tb" unicode-bidi="normal" text-decoration="none" transform="matrix(6.12323e-17 -1 1 6.12323e-17 4167.68 1757)">141</text></g><g clip-path="url(#clip31)"><text fill="#595959" fill-opacity="1" font-family="Calibri,Calibri_MSFontService,sans-serif" font-style="normal" font-variant="normal" font-weight="400" font-stretch="normal" font-size="41" text-anchor="start" direction="ltr" writing-mode="lr-tb" unicode-bidi="normal" text-decoration="none" transform="matrix(6.12323e-17 -1 1 6.12323e-17 4221.3 1757)">151</text></g><g clip-path="url(#clip32)"><text fill="#595959" fill-opacity="1" font-family="Calibri,Calibri_MSFontService,sans-serif" font-style="normal" font-variant="normal" font-weight="400" font-stretch="normal" font-size="41" text-anchor="start" direction="ltr" writing-mode="lr-tb" unicode-bidi="normal" text-decoration="none" transform="matrix(6.12323e-17 -1 1 6.12323e-17 4274.93 1757)">161</text></g><g clip-path="url(#clip33)"><text fill="#595959" fill-opacity="1" font-family="Calibri,Calibri_MSFontService,sans-serif" font-style="normal" font-variant="normal" font-weight="400" font-stretch="normal" font-size="41" text-anchor="start" direction="ltr" writing-mode="lr-tb" unicode-bidi="normal" text-decoration="none" transform="matrix(6.12323e-17 -1 1 6.12323e-17 4328.55 1757)">171</text></g><g clip-path="url(#clip34)"><text fill="#595959" fill-opacity="1" font-family="Calibri,Calibri_MSFontService,sans-serif" font-style="normal" font-variant="normal" font-weight="400" font-stretch="normal" font-size="41" text-anchor="start" direction="ltr" writing-mode="lr-tb" unicode-bidi="normal" text-decoration="none" transform="matrix(6.12323e-17 -1 1 6.12323e-17 4382.17 1757)">181</text></g><g clip-path="url(#clip35)"><text fill="#595959" fill-opacity="1" font-family="Calibri,Calibri_MSFontService,sans-serif" font-style="normal" font-variant="normal" font-weight="400" font-stretch="normal" font-size="41" text-anchor="start" direction="ltr" writing-mode="lr-tb" unicode-bidi="normal" text-decoration="none" transform="matrix(6.12323e-17 -1 1 6.12323e-17 4435.79 1757)">191</text></g><g clip-path="url(#clip36)"><text fill="#595959" fill-opacity="1" font-family="Calibri,Calibri_MSFontService,sans-serif" font-style="normal" font-variant="normal" font-weight="400" font-stretch="normal" font-size="41" text-anchor="start" direction="ltr" writing-mode="lr-tb" unicode-bidi="normal" text-decoration="none" transform="matrix(6.12323e-17 -1 1 6.12323e-17 4489.41 1757)">201</text></g><g clip-path="url(#clip37)"><text fill="#595959" fill-opacity="1" font-family="Calibri,Calibri_MSFontService,sans-serif" font-style="normal" font-variant="normal" font-weight="400" font-stretch="normal" font-size="41" text-anchor="start" direction="ltr" writing-mode="lr-tb" unicode-bidi="normal" text-decoration="none" transform="matrix(6.12323e-17 -1 1 6.12323e-17 4543.04 1757)">211</text></g><g clip-path="url(#clip38)"><text fill="#595959" fill-opacity="1" font-family="Calibri,Calibri_MSFontService,sans-serif" font-style="normal" font-variant="normal" font-weight="400" font-stretch="normal" font-size="41" text-anchor="start" direction="ltr" writing-mode="lr-tb" unicode-bidi="normal" text-decoration="none" transform="matrix(6.12323e-17 -1 1 6.12323e-17 4596.66 1757)">221</text></g><g clip-path="url(#clip39)"><text fill="#595959" fill-opacity="1" font-family="Calibri,Calibri_MSFontService,sans-serif" font-style="normal" font-variant="normal" font-weight="400" font-stretch="normal" font-size="41" text-anchor="start" direction="ltr" writing-mode="lr-tb" unicode-bidi="normal" text-decoration="none" transform="matrix(6.12323e-17 -1 1 6.12323e-17 4650.28 1757)">231</text></g><g clip-path="url(#clip40)"><text fill="#595959" fill-opacity="1" font-family="Calibri,Calibri_MSFontService,sans-serif" font-style="normal" font-variant="normal" font-weight="400" font-stretch="normal" font-size="41" text-anchor="start" direction="ltr" writing-mode="lr-tb" unicode-bidi="normal" text-decoration="none" transform="matrix(6.12323e-17 -1 1 6.12323e-17 4703.9 1757)">241</text></g><g clip-path="url(#clip41)"><text fill="#595959" fill-opacity="1" font-family="Calibri,Calibri_MSFontService,sans-serif" font-style="normal" font-variant="normal" font-weight="400" font-stretch="normal" font-size="41" text-anchor="start" direction="ltr" writing-mode="lr-tb" unicode-bidi="normal" text-decoration="none" transform="matrix(6.12323e-17 -1 1 6.12323e-17 4757.53 1757)">251</text></g><g clip-path="url(#clip42)"><text fill="#595959" fill-opacity="1" font-family="Calibri,Calibri_MSFontService,sans-serif" font-style="normal" font-variant="normal" font-weight="400" font-stretch="normal" font-size="41" text-anchor="start" direction="ltr" writing-mode="lr-tb" unicode-bidi="normal" text-decoration="none" transform="matrix(6.12323e-17 -1 1 6.12323e-17 4811.15 1757)">261</text></g><g clip-path="url(#clip43)"><text fill="#595959" fill-opacity="1" font-family="Calibri,Calibri_MSFontService,sans-serif" font-style="normal" font-variant="normal" font-weight="400" font-stretch="normal" font-size="41" text-anchor="start" direction="ltr" writing-mode="lr-tb" unicode-bidi="normal" text-decoration="none" transform="matrix(6.12323e-17 -1 1 6.12323e-17 4864.77 1757)">271</text></g><g clip-path="url(#clip44)"><text fill="#595959" fill-opacity="1" font-family="Calibri,Calibri_MSFontService,sans-serif" font-style="normal" font-variant="normal" font-weight="400" font-stretch="normal" font-size="41" text-anchor="start" direction="ltr" writing-mode="lr-tb" unicode-bidi="normal" text-decoration="none" transform="matrix(6.12323e-17 -1 1 6.12323e-17 4918.39 1757)">281</text></g><g clip-path="url(#clip45)"><text fill="#595959" fill-opacity="1" font-family="Calibri,Calibri_MSFontService,sans-serif" font-style="normal" font-variant="normal" font-weight="400" font-stretch="normal" font-size="41" text-anchor="start" direction="ltr" writing-mode="lr-tb" unicode-bidi="normal" text-decoration="none" transform="matrix(6.12323e-17 -1 1 6.12323e-17 4972.01 1757)">291</text></g><g clip-path="url(#clip46)"><text fill="#595959" fill-opacity="1" font-family="Calibri,Calibri_MSFontService,sans-serif" font-style="normal" font-variant="normal" font-weight="400" font-stretch="normal" font-size="41" text-anchor="start" direction="ltr" writing-mode="lr-tb" unicode-bidi="normal" text-decoration="none" transform="matrix(6.12323e-17 -1 1 6.12323e-17 5025.64 1757)">301</text></g><g clip-path="url(#clip47)"><text fill="#595959" fill-opacity="1" font-family="Calibri,Calibri_MSFontService,sans-serif" font-style="normal" font-variant="normal" font-weight="400" font-stretch="normal" font-size="41" text-anchor="start" direction="ltr" writing-mode="lr-tb" unicode-bidi="normal" text-decoration="none" transform="matrix(6.12323e-17 -1 1 6.12323e-17 5079.26 1757)">311</text></g><g clip-path="url(#clip48)"><text fill="#595959" fill-opacity="1" font-family="Calibri,Calibri_MSFontService,sans-serif" font-style="normal" font-variant="normal" font-weight="400" font-stretch="normal" font-size="41" text-anchor="start" direction="ltr" writing-mode="lr-tb" unicode-bidi="normal" text-decoration="none" transform="matrix(6.12323e-17 -1 1 6.12323e-17 5132.88 1757)">321</text></g><g clip-path="url(#clip49)"><text fill="#595959" fill-opacity="1" font-family="Calibri,Calibri_MSFontService,sans-serif" font-style="normal" font-variant="normal" font-weight="400" font-stretch="normal" font-size="41" text-anchor="start" direction="ltr" writing-mode="lr-tb" unicode-bidi="normal" text-decoration="none" transform="matrix(6.12323e-17 -1 1 6.12323e-17 5186.5 1757)">331</text></g><g clip-path="url(#clip50)"><text fill="#595959" fill-opacity="1" font-family="Calibri,Calibri_MSFontService,sans-serif" font-style="normal" font-variant="normal" font-weight="400" font-stretch="normal" font-size="41" text-anchor="start" direction="ltr" writing-mode="lr-tb" unicode-bidi="normal" text-decoration="none" transform="matrix(6.12323e-17 -1 1 6.12323e-17 5240.13 1757)">341</text></g><g clip-path="url(#clip51)"><text fill="#595959" fill-opacity="1" font-family="Calibri,Calibri_MSFontService,sans-serif" font-style="normal" font-variant="normal" font-weight="400" font-stretch="normal" font-size="41" text-anchor="start" direction="ltr" writing-mode="lr-tb" unicode-bidi="normal" text-decoration="none" transform="matrix(6.12323e-17 -1 1 6.12323e-17 5293.75 1757)">351</text></g><g clip-path="url(#clip52)"><text fill="#595959" fill-opacity="1" font-family="Calibri,Calibri_MSFontService,sans-serif" font-style="normal" font-variant="normal" font-weight="400" font-stretch="normal" font-size="41" text-anchor="start" direction="ltr" writing-mode="lr-tb" unicode-bidi="normal" text-decoration="none" transform="matrix(6.12323e-17 -1 1 6.12323e-17 5347.37 1757)">361</text></g><g clip-path="url(#clip53)"><text fill="#595959" fill-opacity="1" font-family="Calibri,Calibri_MSFontService,sans-serif" font-style="normal" font-variant="normal" font-weight="400" font-stretch="normal" font-size="41" text-anchor="start" direction="ltr" writing-mode="lr-tb" unicode-bidi="normal" text-decoration="none" transform="matrix(6.12323e-17 -1 1 6.12323e-17 5400.99 1757)">371</text></g><g clip-path="url(#clip54)"><text fill="#595959" fill-opacity="1" font-family="Calibri,Calibri_MSFontService,sans-serif" font-style="normal" font-variant="normal" font-weight="400" font-stretch="normal" font-size="41" text-anchor="start" direction="ltr" writing-mode="lr-tb" unicode-bidi="normal" text-decoration="none" transform="matrix(6.12323e-17 -1 1 6.12323e-17 5454.61 1757)">381</text></g><g clip-path="url(#clip55)"><text fill="#595959" fill-opacity="1" font-family="Calibri,Calibri_MSFontService,sans-serif" font-style="normal" font-variant="normal" font-weight="400" font-stretch="normal" font-size="41" text-anchor="start" direction="ltr" writing-mode="lr-tb" unicode-bidi="normal" text-decoration="none" transform="matrix(6.12323e-17 -1 1 6.12323e-17 5508.24 1757)">391</text></g><g clip-path="url(#clip56)"><text fill="#595959" fill-opacity="1" font-family="Calibri,Calibri_MSFontService,sans-serif" font-style="normal" font-variant="normal" font-weight="400" font-stretch="normal" font-size="41" text-anchor="start" direction="ltr" writing-mode="lr-tb" unicode-bidi="normal" text-decoration="none" transform="matrix(6.12323e-17 -1 1 6.12323e-17 5561.86 1757)">401</text></g><g clip-path="url(#clip57)"><text fill="#595959" fill-opacity="1" font-family="Calibri,Calibri_MSFontService,sans-serif" font-style="normal" font-variant="normal" font-weight="400" font-stretch="normal" font-size="41" text-anchor="start" direction="ltr" writing-mode="lr-tb" unicode-bidi="normal" text-decoration="none" transform="matrix(6.12323e-17 -1 1 6.12323e-17 5615.48 1757)">411</text></g><g clip-path="url(#clip58)"><text fill="#595959" fill-opacity="1" font-family="Calibri,Calibri_MSFontService,sans-serif" font-style="normal" font-variant="normal" font-weight="400" font-stretch="normal" font-size="41" text-anchor="start" direction="ltr" writing-mode="lr-tb" unicode-bidi="normal" text-decoration="none" transform="matrix(6.12323e-17 -1 1 6.12323e-17 5669.1 1757)">421</text></g><g clip-path="url(#clip59)"><text fill="#595959" fill-opacity="1" font-family="Calibri,Calibri_MSFontService,sans-serif" font-style="normal" font-variant="normal" font-weight="400" font-stretch="normal" font-size="41" text-anchor="start" direction="ltr" writing-mode="lr-tb" unicode-bidi="normal" text-decoration="none" transform="matrix(6.12323e-17 -1 1 6.12323e-17 5722.73 1757)">431</text></g><g clip-path="url(#clip60)"><text fill="#595959" fill-opacity="1" font-family="Calibri,Calibri_MSFontService,sans-serif" font-style="normal" font-variant="normal" font-weight="400" font-stretch="normal" font-size="41" text-anchor="start" direction="ltr" writing-mode="lr-tb" unicode-bidi="normal" text-decoration="none" transform="matrix(6.12323e-17 -1 1 6.12323e-17 5776.35 1757)">441</text></g><g clip-path="url(#clip61)"><text fill="#595959" fill-opacity="1" font-family="Calibri,Calibri_MSFontService,sans-serif" font-style="normal" font-variant="normal" font-weight="400" font-stretch="normal" font-size="41" text-anchor="start" direction="ltr" writing-mode="lr-tb" unicode-bidi="normal" text-decoration="none" transform="matrix(6.12323e-17 -1 1 6.12323e-17 5829.97 1757)">451</text></g><g clip-path="url(#clip62)"><text fill="#595959" fill-opacity="1" font-family="Calibri,Calibri_MSFontService,sans-serif" font-style="normal" font-variant="normal" font-weight="400" font-stretch="normal" font-size="41" text-anchor="start" direction="ltr" writing-mode="lr-tb" unicode-bidi="normal" text-decoration="none" transform="matrix(6.12323e-17 -1 1 6.12323e-17 5883.59 1757)">461</text></g><g clip-path="url(#clip63)"><text fill="#595959" fill-opacity="1" font-family="Calibri,Calibri_MSFontService,sans-serif" font-style="normal" font-variant="normal" font-weight="400" font-stretch="normal" font-size="41" text-anchor="start" direction="ltr" writing-mode="lr-tb" unicode-bidi="normal" text-decoration="none" transform="matrix(6.12323e-17 -1 1 6.12323e-17 5937.21 1757)">471</text></g><g clip-path="url(#clip64)"><text fill="#595959" fill-opacity="1" font-family="Calibri,Calibri_MSFontService,sans-serif" font-style="normal" font-variant="normal" font-weight="400" font-stretch="normal" font-size="41" text-anchor="start" direction="ltr" writing-mode="lr-tb" unicode-bidi="normal" text-decoration="none" transform="matrix(6.12323e-17 -1 1 6.12323e-17 5990.84 1757)">481</text></g><g clip-path="url(#clip65)"><text fill="#595959" fill-opacity="1" font-family="Calibri,Calibri_MSFontService,sans-serif" font-style="normal" font-variant="normal" font-weight="700" font-stretch="normal" font-size="46" text-anchor="start" direction="ltr" writing-mode="lr-tb" unicode-bidi="normal" text-decoration="none" transform="matrix(6.12323e-17 -1 1 6.12323e-17 3284.42 1264)">Normalized score</text></g><g clip-path="url(#clip66)"><text fill="#595959" fill-opacity="1" font-family="Calibri,Calibri_MSFontService,sans-serif" font-style="normal" font-variant="normal" font-weight="700" font-stretch="normal" font-size="46" text-anchor="start" direction="ltr" writing-mode="lr-tb" unicode-bidi="normal" text-decoration="none" transform="matrix(1 0 0 1 4621.04 1815)">Episode</text></g><g clip-path="url(#clip67)"><text fill="#595959" fill-opacity="1" font-family="Calibri,Calibri_MSFontService,sans-serif" font-style="normal" font-variant="normal" font-weight="700" font-stretch="normal" font-size="64" text-anchor="start" direction="ltr" writing-mode="lr-tb" unicode-bidi="normal" text-decoration="none" transform="matrix(1 0 0 1 4539.1 453)">Score</text></g><g clip-path="url(#clip68)"><path d="M4256.5 1922.5 4344.5 1922.5" stroke="#4472C4" stroke-width="11.4583" stroke-linecap="round" stroke-linejoin="round" stroke-miterlimit="10" stroke-opacity="1" fill="none" fill-rule="evenodd"/></g><g clip-path="url(#clip69)"><text fill="#595959" fill-opacity="1" font-family="Calibri,Calibri_MSFontService,sans-serif" font-style="normal" font-variant="normal" font-weight="400" font-stretch="normal" font-size="41" text-anchor="start" direction="ltr" writing-mode="lr-tb" unicode-bidi="normal" text-decoration="none" transform="matrix(1 0 0 1 4353.55 1933)">Intrinsic score</text></g><g clip-path="url(#clip70)"><path d="M4647 1923 4735 1923" stroke="#ED7D31" stroke-width="8.02083" stroke-linecap="round" stroke-linejoin="round" stroke-miterlimit="10" stroke-opacity="0.901961" fill="none" fill-rule="evenodd"/></g><g clip-path="url(#clip71)"><text fill="#595959" fill-opacity="1" font-family="Calibri,Calibri_MSFontService,sans-serif" font-style="normal" font-variant="normal" font-weight="400" font-stretch="normal" font-size="41" text-anchor="start" direction="ltr" writing-mode="lr-tb" unicode-bidi="normal" text-decoration="none" transform="matrix(1 0 0 1 4743.86 1933)">Extrinsic score</text></g><rect x="3183.5" y="358.5" width="2858" height="1631" stroke="#D9D9D9" stroke-width="3.4375" stroke-linecap="butt" stroke-linejoin="round" stroke-miterlimit="10" stroke-opacity="1" fill="none"/></g></svg>