<svg width="2919" height="1554" xmlns="http://www.w3.org/2000/svg" xmlns:xlink="http://www.w3.org/1999/xlink" xml:space="preserve" overflow="hidden"><defs><clipPath id="clip0"><rect x="3387" y="183" width="2919" height="1554"/></clipPath><clipPath id="clip1"><rect x="3390" y="187" width="2910" height="1545"/></clipPath><clipPath id="clip2"><rect x="3390" y="187" width="2910" height="1545"/></clipPath><clipPath id="clip3"><rect x="3608" y="357" width="2645" height="1058"/></clipPath><clipPath id="clip4"><rect x="3608" y="357" width="2645" height="1058"/></clipPath><clipPath id="clip5"><rect x="3390" y="187" width="2910" height="1545"/></clipPath><clipPath id="clip6"><rect x="3390" y="187" width="2910" height="1545"/></clipPath><clipPath id="clip7"><rect x="3390" y="187" width="2910" height="1545"/></clipPath><clipPath id="clip8"><rect x="3390" y="187" width="2910" height="1545"/></clipPath><clipPath id="clip9"><rect x="3390" y="187" width="2910" height="1545"/></clipPath><clipPath id="clip10"><rect x="3390" y="187" width="2910" height="1545"/></clipPath><clipPath id="clip11"><rect x="3390" y="187" width="2910" height="1545"/></clipPath><clipPath id="clip12"><rect x="3390" y="187" width="2910" height="1545"/></clipPath><clipPath id="clip13"><rect x="3390" y="187" width="2910" height="1545"/></clipPath><clipPath id="clip14"><rect x="3390" y="187" width="2910" height="1545"/></clipPath><clipPath id="clip15"><rect x="3390" y="187" width="2910" height="1545"/></clipPath><clipPath id="clip16"><rect x="3390" y="187" width="2910" height="1545"/></clipPath><clipPath id="clip17"><rect x="3390" y="187" width="2910" height="1545"/></clipPath><clipPath id="clip18"><rect x="3390" y="187" width="2910" height="1545"/></clipPath><clipPath id="clip19"><rect x="3390" y="187" width="2910" height="1545"/></clipPath><clipPath id="clip20"><rect x="3390" y="187" width="2910" height="1545"/></clipPath><clipPath id="clip21"><rect x="3390" y="187" width="2910" height="1545"/></clipPath><clipPath id="clip22"><rect x="3390" y="187" width="2910" height="1545"/></clipPath><clipPath id="clip23"><rect x="3390" y="187" width="2910" height="1545"/></clipPath><clipPath id="clip24"><rect x="3390" y="187" width="2910" height="1545"/></clipPath><clipPath id="clip25"><rect x="3390" y="187" width="2910" height="1545"/></clipPath><clipPath id="clip26"><rect x="3390" y="187" width="2910" height="1545"/></clipPath><clipPath id="clip27"><rect x="3390" y="187" width="2910" height="1545"/></clipPath><clipPath id="clip28"><rect x="3390" y="187" width="2910" height="1545"/></clipPath><clipPath id="clip29"><rect x="3390" y="187" width="2910" height="1545"/></clipPath><clipPath id="clip30"><rect x="3390" y="187" width="2910" height="1545"/></clipPath><clipPath id="clip31"><rect x="3390" y="187" width="2910" height="1545"/></clipPath><clipPath id="clip32"><rect x="3390" y="187" width="2910" height="1545"/></clipPath><clipPath id="clip33"><rect x="3390" y="187" width="2910" height="1545"/></clipPath><clipPath id="clip34"><rect x="3390" y="187" width="2910" height="1545"/></clipPath><clipPath id="clip35"><rect x="3390" y="187" width="2910" height="1545"/></clipPath><clipPath id="clip36"><rect x="3390" y="187" width="2910" height="1545"/></clipPath><clipPath id="clip37"><rect x="3390" y="187" width="2910" height="1545"/></clipPath><clipPath id="clip38"><rect x="3390" y="187" width="2910" height="1545"/></clipPath><clipPath id="clip39"><rect x="3390" y="187" width="2910" height="1545"/></clipPath><clipPath id="clip40"><rect x="3390" y="187" width="2910" height="1545"/></clipPath><clipPath id="clip41"><rect x="3390" y="187" width="2910" height="1545"/></clipPath><clipPath id="clip42"><rect x="3390" y="187" width="2910" height="1545"/></clipPath><clipPath id="clip43"><rect x="3390" y="187" width="2910" height="1545"/></clipPath><clipPath id="clip44"><rect x="3390" y="187" width="2910" height="1545"/></clipPath><clipPath id="clip45"><rect x="3390" y="187" width="2910" height="1545"/></clipPath><clipPath id="clip46"><rect x="3390" y="187" width="2910" height="1545"/></clipPath><clipPath id="clip47"><rect x="3390" y="187" width="2910" height="1545"/></clipPath><clipPath id="clip48"><rect x="3390" y="187" width="2910" height="1545"/></clipPath><clipPath id="clip49"><rect x="3390" y="187" width="2910" height="1545"/></clipPath><clipPath id="clip50"><rect x="3390" y="187" width="2910" height="1545"/></clipPath><clipPath id="clip51"><rect x="3390" y="187" width="2910" height="1545"/></clipPath><clipPath id="clip52"><rect x="3390" y="187" width="2910" height="1545"/></clipPath><clipPath id="clip53"><rect x="3390" y="187" width="2910" height="1545"/></clipPath><clipPath id="clip54"><rect x="3390" y="187" width="2910" height="1545"/></clipPath><clipPath id="clip55"><rect x="3390" y="187" width="2910" height="1545"/></clipPath><clipPath id="clip56"><rect x="3390" y="187" width="2910" height="1545"/></clipPath><clipPath id="clip57"><rect x="3390" y="187" width="2910" height="1545"/></clipPath><clipPath id="clip58"><rect x="3390" y="187" width="2910" height="1545"/></clipPath><clipPath id="clip59"><rect x="3390" y="187" width="2910" height="1545"/></clipPath><clipPath id="clip60"><rect x="3390" y="187" width="2910" height="1545"/></clipPath><clipPath id="clip61"><rect x="3390" y="187" width="2910" height="1545"/></clipPath><clipPath id="clip62"><rect x="3390" y="187" width="2910" height="1545"/></clipPath><clipPath id="clip63"><rect x="3390" y="187" width="2910" height="1545"/></clipPath><clipPath id="clip64"><rect x="3390" y="187" width="2910" height="1545"/></clipPath><clipPath id="clip65"><rect x="3390" y="187" width="2910" height="1545"/></clipPath><clipPath id="clip66"><rect x="3390" y="187" width="2910" height="1545"/></clipPath><clipPath id="clip67"><rect x="3390" y="187" width="2910" height="1545"/></clipPath><clipPath id="clip68"><rect x="3390" y="187" width="2910" height="1545"/></clipPath></defs><g clip-path="url(#clip0)" transform="translate(-3387 -183)"><rect x="3391" y="188" width="2910" height="1544" fill="#FFFFFF" fill-opacity="1"/><g clip-path="url(#clip1)"><path d="M3608.5 1306.54 6250.5 1306.54M3608.5 1200.54 6250.5 1200.54M3608.5 1095.54 6250.5 1095.54M3608.5 990.533 6250.5 990.533M3608.5 884.529 6250.5 884.529M3608.5 779.526 6250.5 779.526M3608.5 674.522 6250.5 674.522M3608.5 568.519 6250.5 568.519M3608.5 463.515 6250.5 463.515M3608.5 357.5 6250.5 357.5" stroke="#D9D9D9" stroke-width="3.4375" stroke-linecap="butt" stroke-linejoin="round" stroke-miterlimit="10" stroke-opacity="1" fill="none" fill-rule="nonzero"/></g><g clip-path="url(#clip2)"><path d="M3608.5 1411.5 6250.5 1411.5" stroke="#D9D9D9" stroke-width="3.4375" stroke-linecap="butt" stroke-linejoin="round" stroke-miterlimit="10" stroke-opacity="1" fill="none" fill-rule="evenodd"/></g><g clip-path="url(#clip3)"><path d="M3614.5 357.5 3625.62 1098.54 3637.62 1411.5 3648.62 1411.5 3660.62 1411.5 3672.62 1411.5 3683.62 1411.5 3695.62 1411.5 3707.62 1411.5 3718.62 1411.5 3730.62 1411.5 3741.62 1411.5 3753.62 1411.5 3765.62 1411.5 3776.62 1411.5 3788.62 1411.5 3800.62 1411.5 3811.63 1404.55 3823.63 1411.5 3835.63 1411.5 3846.63 1411.5 3858.63 1411.5 3869.63 1411.5 3881.63 1411.5 3893.63 1411.5 3904.63 1411.5 3916.63 1411.5 3928.63 1411.5 3939.63 1410.55 3951.63 1411.55 3963.63 1411.5 3974.63 1409.55 3986.63 1411.5 3997.63 1411.5 4009.63 1411.5 4021.63 1411.5 4032.63 1411.5 4044.63 1411.5 4056.63 1397.55 4067.63 1411.5 4079.63 1385.55 4091.63 1411.5 4102.63 1411.5 4114.64 1411.5 4126.64 1392.55 4137.64 1390.55 4149.64 1411.5 4160.64 1411.5 4172.64 1400.55 4184.64 1411.5 4195.64 1411.5 4207.64 1411.5 4219.64 1411.5 4230.64 1411.5 4242.64 1411.5 4254.64 1411.5 4265.64 1410.55 4277.64 1410.55 4288.64 1411.5 4300.64 1411.5 4312.64 1411.5 4323.64 1391.55 4335.64 1410.55 4347.64 1411.5 4358.64 1411.5 4370.64 1411.5 4382.64 1411.55 4393.64 1405.55 4405.64 1411.5 4416.65 1411.55 4428.65 1411.5 4440.65 1411.55 4451.65 1411.5 4463.65 1410.55 4475.65 1411.55 4486.65 1409.55 4498.65 1360.54 4510.65 1411.5 4521.65 1411.5 4533.65 1411.5 4544.65 1411.5 4556.65 1411.55 4568.65 1411.55 4579.65 1411.5 4591.65 1382.55 4603.65 1411.55 4614.65 1407.55 4626.65 1411.5 4638.65 1411.5 4649.65 1411.55 4661.65 1410.55 4672.65 1411.5 4684.65 1411.5 4696.65 1401.55 4707.65 1411.5 4719.65 1410.55 4731.66 1407.55 4742.66 1411.5 4754.66 1411.5 4766.66 1411.5 4777.66 1411.5 4789.66 1411.5 4801.66 1411.5 4812.66 1411.5 4824.66 1411.5 4835.66 1395.55 4847.66 1411.5 4859.66 1408.55 4870.66 1394.55 4882.66 1411.5 4894.66 1411.5 4905.66 1411.5 4917.66 1407.55 4929.66 1406.55 4940.66 1411.55 4952.66 1406.55 4963.66 1408.55 4975.66 1378.55 4987.66 1408.55 4998.66 1411.55 5010.66 1411.5 5022.67 1391.55 5033.67 1410.55 5045.67 1411.55 5057.67 1405.55 5068.67 1411.55 5080.67 1408.55 5091.67 1364.54 5103.67 1382.55 5115.67 1410.55 5126.67 1411.55 5138.67 1411.55 5150.67 1411.55 5161.67 1405.55 5173.67 1411.5 5185.67 1410.55 5196.67 1396.55 5208.67 1411.5 5219.67 1337.54 5231.67 1331.54 5243.67 1388.55 5254.67 1407.55 5266.67 1411.55 5278.67 1383.55 5289.67 1408.55 5301.67 1368.55 5313.67 1371.55 5324.67 1411.55 5336.68 1375.55 5347.68 1411.55 5359.68 1411.55 5371.68 1397.55 5382.68 1411.55 5394.68 1405.55 5406.68 1411.55 5417.68 1373.55 5429.68 1411.55 5441.68 1251.54 5452.68 1360.54 5464.68 1355.54 5476.68 367.512 5487.68 1054.53 5499.68 1332.54 5510.68 1308.54 5522.68 1366.55 5534.68 1392.55 5545.68 1364.54 5557.68 1402.55 5569.68 1351.54 5580.68 1411.5 5592.68 1411.5 5604.68 1411.5 5615.68 1409.55 5627.68 1234.54 5638.69 1411.5 5650.69 1294.54 5662.69 1114.54 5673.69 939.531 5685.69 964.532 5697.69 398.513 5708.69 623.521 5720.69 387.513 5732.69 747.525 5743.69 826.527 5755.69 924.531 5766.69 1105.54 5778.69 1287.54 5790.69 1347.54 5801.69 1367.55 5813.69 1410.55 5825.69 1410.55 5836.69 1411.5 5848.69 1402.55 5860.69 1271.54 5871.69 1302.54 5883.69 1236.54 5894.69 1009.53 5906.69 1173.54 5918.69 1241.54 5929.69 934.531 5941.7 773.526 5953.7 1087.54 5964.7 1016.53 5976.7 1115.54 5988.7 1140.54 5999.7 1220.54 6011.7 559.519 6022.7 652.522 6034.7 938.531 6046.7 912.53 6057.7 880.529 6069.7 975.532 6081.7 1201.54 6092.7 1391.55 6104.7 1384.55 6116.7 1411.55 6127.7 1411.55 6139.7 1403.55 6151.7 1323.54 6162.7 1194.54 6174.7 1014.53 6185.7 1011.53 6197.7 1028.53 6209.7 855.528 6220.7 662.522 6232.7 695.523 6244.5 1245.54" stroke="#4472C4" stroke-width="11.4583" stroke-linecap="round" stroke-linejoin="round" stroke-miterlimit="10" stroke-opacity="1" fill="none" fill-rule="nonzero"/></g><g clip-path="url(#clip4)"><path d="M3614.5 1411.5 3625.62 1411.5 3637.62 1411.5 3648.62 1411.5 3660.62 1411.5 3672.62 1411.5 3683.62 1411.5 3695.62 1411.5 3707.62 1411.5 3718.62 1411.5 3730.62 1411.5 3741.62 1411.5 3753.62 1411.5 3765.62 1411.5 3776.62 1411.5 3788.62 1411.5 3800.62 1411.5 3811.63 1411.5 3823.63 1411.5 3835.63 1411.5 3846.63 1411.5 3858.63 1411.5 3869.63 1411.5 3881.63 1411.5 3893.63 1411.5 3904.63 1411.5 3916.63 1411.5 3928.63 1411.5 3939.63 1411.5 3951.63 1411.5 3963.63 1411.5 3974.63 1411.5 3986.63 1411.5 3997.63 1411.5 4009.63 1411.5 4021.63 1411.5 4032.63 1411.5 4044.63 1411.5 4056.63 1411.5 4067.63 1411.5 4079.63 1411.5 4091.63 1411.5 4102.63 1411.5 4114.64 1411.5 4126.64 1411.5 4137.64 1411.5 4149.64 1411.5 4160.64 1411.5 4172.64 1411.5 4184.64 1411.5 4195.64 1411.5 4207.64 1411.5 4219.64 1411.5 4230.64 1411.5 4242.64 1411.5 4254.64 1411.5 4265.64 1411.5 4277.64 1411.5 4288.64 1411.5 4300.64 1411.5 4312.64 1411.5 4323.64 1411.5 4335.64 1411.5 4347.64 1411.5 4358.64 1411.5 4370.64 1411.5 4382.64 1411.5 4393.64 1411.5 4405.64 1411.5 4416.65 1411.5 4428.65 1411.5 4440.65 1411.5 4451.65 1411.5 4463.65 1411.5 4475.65 1411.5 4486.65 1411.5 4498.65 1411.5 4510.65 1411.5 4521.65 1411.5 4533.65 1411.5 4544.65 1411.5 4556.65 1411.5 4568.65 1411.5 4579.65 1411.5 4591.65 1411.5 4603.65 1411.5 4614.65 1411.5 4626.65 1411.5 4638.65 1411.5 4649.65 1411.5 4661.65 1411.5 4672.65 1411.5 4684.65 1411.5 4696.65 1411.5 4707.65 1411.5 4719.65 1411.5 4731.66 1411.5 4742.66 1411.5 4754.66 1411.5 4766.66 1411.5 4777.66 1411.5 4789.66 1411.5 4801.66 1411.5 4812.66 1411.5 4824.66 1411.5 4835.66 1411.5 4847.66 1411.5 4859.66 1411.5 4870.66 1411.5 4882.66 1411.5 4894.66 1411.5 4905.66 1411.5 4917.66 1411.5 4929.66 1411.5 4940.66 1411.5 4952.66 1411.5 4963.66 1411.5 4975.66 1411.5 4987.66 1411.5 4998.66 1411.5 5010.66 1411.5 5022.67 1411.5 5033.67 1411.5 5045.67 1411.5 5057.67 1411.5 5068.67 1411.5 5080.67 1411.5 5091.67 1411.5 5103.67 1411.5 5115.67 1411.5 5126.67 1411.5 5138.67 1411.5 5150.67 1411.5 5161.67 1411.5 5173.67 1411.5 5185.67 1411.5 5196.67 1411.5 5208.67 1411.5 5219.67 1411.5 5231.67 1411.5 5243.67 1411.5 5254.67 1411.5 5266.67 1411.5 5278.67 1411.5 5289.67 1411.5 5301.67 1411.5 5313.67 1411.5 5324.67 1411.5 5336.68 1411.5 5347.68 1411.5 5359.68 1411.5 5371.68 1411.5 5382.68 1411.5 5394.68 1411.5 5406.68 1411.5 5417.68 1411.5 5429.68 1411.5 5441.68 1411.5 5452.68 1411.5 5464.68 1411.5 5476.68 1411.5 5487.68 1411.5 5499.68 1411.5 5510.68 1411.5 5522.68 1411.5 5534.68 1411.5 5545.68 1411.5 5557.68 1411.5 5569.68 1411.5 5580.68 1411.5 5592.68 1411.5 5604.68 1411.5 5615.68 1411.5 5627.68 1411.5 5638.69 1411.5 5650.69 1411.5 5662.69 1411.5 5673.69 1411.5 5685.69 1411.5 5697.69 1372.55 5708.69 1411.5 5720.69 1401.55 5732.69 953.531 5743.69 923.53 5755.69 1411.5 5766.69 1411.5 5778.69 1411.5 5790.69 1411.5 5801.69 1411.5 5813.69 1411.5 5825.69 1411.5 5836.69 1411.5 5848.69 1411.5 5860.69 1411.5 5871.69 1411.5 5883.69 1411.5 5894.69 1294.54 5906.69 816.527 5918.69 689.523 5929.69 904.53 5941.7 1060.53 5953.7 660.522 5964.7 709.523 5976.7 699.523 5988.7 611.52 5999.7 611.52 6011.7 1284.54 6022.7 1216.54 6034.7 962.532 6046.7 1011.53 6057.7 1411.5 6069.7 1411.5 6081.7 1411.5 6092.7 1411.5 6104.7 1411.5 6116.7 1411.5 6127.7 1411.5 6139.7 1411.5 6151.7 1411.5 6162.7 1411.5 6174.7 1275.54 6185.7 1304.54 6197.7 1265.54 6209.7 1099.54 6220.7 1294.54 6232.7 1216.54 6244.5 357.5" stroke="#ED7D31" stroke-width="9.16667" stroke-linecap="round" stroke-linejoin="round" stroke-miterlimit="10" stroke-opacity="1" fill="none" fill-rule="nonzero"/></g><g clip-path="url(#clip5)"><text fill="#595959" fill-opacity="1" font-family="Calibri,Calibri_MSFontService,sans-serif" font-style="normal" font-variant="normal" font-weight="400" font-stretch="normal" font-size="41" text-anchor="start" direction="ltr" writing-mode="lr-tb" unicode-bidi="normal" text-decoration="none" transform="matrix(1 0 0 1 3549.07 1422)">0</text></g><g clip-path="url(#clip6)"><text fill="#595959" fill-opacity="1" font-family="Calibri,Calibri_MSFontService,sans-serif" font-style="normal" font-variant="normal" font-weight="400" font-stretch="normal" font-size="41" text-anchor="start" direction="ltr" writing-mode="lr-tb" unicode-bidi="normal" text-decoration="none" transform="matrix(1 0 0 1 3517.88 1316)">0,1</text></g><g clip-path="url(#clip7)"><text fill="#595959" fill-opacity="1" font-family="Calibri,Calibri_MSFontService,sans-serif" font-style="normal" font-variant="normal" font-weight="400" font-stretch="normal" font-size="41" text-anchor="start" direction="ltr" writing-mode="lr-tb" unicode-bidi="normal" text-decoration="none" transform="matrix(1 0 0 1 3517.88 1211)">0,2</text></g><g clip-path="url(#clip8)"><text fill="#595959" fill-opacity="1" font-family="Calibri,Calibri_MSFontService,sans-serif" font-style="normal" font-variant="normal" font-weight="400" font-stretch="normal" font-size="41" text-anchor="start" direction="ltr" writing-mode="lr-tb" unicode-bidi="normal" text-decoration="none" transform="matrix(1 0 0 1 3517.88 1106)">0,3</text></g><g clip-path="url(#clip9)"><text fill="#595959" fill-opacity="1" font-family="Calibri,Calibri_MSFontService,sans-serif" font-style="normal" font-variant="normal" font-weight="400" font-stretch="normal" font-size="41" text-anchor="start" direction="ltr" writing-mode="lr-tb" unicode-bidi="normal" text-decoration="none" transform="matrix(1 0 0 1 3517.88 1000)">0,4</text></g><g clip-path="url(#clip10)"><text fill="#595959" fill-opacity="1" font-family="Calibri,Calibri_MSFontService,sans-serif" font-style="normal" font-variant="normal" font-weight="400" font-stretch="normal" font-size="41" text-anchor="start" direction="ltr" writing-mode="lr-tb" unicode-bidi="normal" text-decoration="none" transform="matrix(1 0 0 1 3517.88 895)">0,5</text></g><g clip-path="url(#clip11)"><text fill="#595959" fill-opacity="1" font-family="Calibri,Calibri_MSFontService,sans-serif" font-style="normal" font-variant="normal" font-weight="400" font-stretch="normal" font-size="41" text-anchor="start" direction="ltr" writing-mode="lr-tb" unicode-bidi="normal" text-decoration="none" transform="matrix(1 0 0 1 3517.88 790)">0,6</text></g><g clip-path="url(#clip12)"><text fill="#595959" fill-opacity="1" font-family="Calibri,Calibri_MSFontService,sans-serif" font-style="normal" font-variant="normal" font-weight="400" font-stretch="normal" font-size="41" text-anchor="start" direction="ltr" writing-mode="lr-tb" unicode-bidi="normal" text-decoration="none" transform="matrix(1 0 0 1 3517.88 684)">0,7</text></g><g clip-path="url(#clip13)"><text fill="#595959" fill-opacity="1" font-family="Calibri,Calibri_MSFontService,sans-serif" font-style="normal" font-variant="normal" font-weight="400" font-stretch="normal" font-size="41" text-anchor="start" direction="ltr" writing-mode="lr-tb" unicode-bidi="normal" text-decoration="none" transform="matrix(1 0 0 1 3517.88 579)">0,8</text></g><g clip-path="url(#clip14)"><text fill="#595959" fill-opacity="1" font-family="Calibri,Calibri_MSFontService,sans-serif" font-style="normal" font-variant="normal" font-weight="400" font-stretch="normal" font-size="41" text-anchor="start" direction="ltr" writing-mode="lr-tb" unicode-bidi="normal" text-decoration="none" transform="matrix(1 0 0 1 3517.88 473)">0,9</text></g><g clip-path="url(#clip15)"><text fill="#595959" fill-opacity="1" font-family="Calibri,Calibri_MSFontService,sans-serif" font-style="normal" font-variant="normal" font-weight="400" font-stretch="normal" font-size="41" text-anchor="start" direction="ltr" writing-mode="lr-tb" unicode-bidi="normal" text-decoration="none" transform="matrix(1 0 0 1 3549.07 368)">1</text></g><g clip-path="url(#clip16)"><text fill="#595959" fill-opacity="1" font-family="Calibri,Calibri_MSFontService,sans-serif" font-style="normal" font-variant="normal" font-weight="400" font-stretch="normal" font-size="41" text-anchor="start" direction="ltr" writing-mode="lr-tb" unicode-bidi="normal" text-decoration="none" transform="matrix(6.12323e-17 -1 1 6.12323e-17 3627.89 1459)">1</text></g><g clip-path="url(#clip17)"><text fill="#595959" fill-opacity="1" font-family="Calibri,Calibri_MSFontService,sans-serif" font-style="normal" font-variant="normal" font-weight="400" font-stretch="normal" font-size="41" text-anchor="start" direction="ltr" writing-mode="lr-tb" unicode-bidi="normal" text-decoration="none" transform="matrix(6.12323e-17 -1 1 6.12323e-17 3686.08 1459)">6</text></g><g clip-path="url(#clip18)"><text fill="#595959" fill-opacity="1" font-family="Calibri,Calibri_MSFontService,sans-serif" font-style="normal" font-variant="normal" font-weight="400" font-stretch="normal" font-size="41" text-anchor="start" direction="ltr" writing-mode="lr-tb" unicode-bidi="normal" text-decoration="none" transform="matrix(6.12323e-17 -1 1 6.12323e-17 3744.27 1480)">11</text></g><g clip-path="url(#clip19)"><text fill="#595959" fill-opacity="1" font-family="Calibri,Calibri_MSFontService,sans-serif" font-style="normal" font-variant="normal" font-weight="400" font-stretch="normal" font-size="41" text-anchor="start" direction="ltr" writing-mode="lr-tb" unicode-bidi="normal" text-decoration="none" transform="matrix(6.12323e-17 -1 1 6.12323e-17 3802.46 1480)">16</text></g><g clip-path="url(#clip20)"><text fill="#595959" fill-opacity="1" font-family="Calibri,Calibri_MSFontService,sans-serif" font-style="normal" font-variant="normal" font-weight="400" font-stretch="normal" font-size="41" text-anchor="start" direction="ltr" writing-mode="lr-tb" unicode-bidi="normal" text-decoration="none" transform="matrix(6.12323e-17 -1 1 6.12323e-17 3860.65 1480)">21</text></g><g clip-path="url(#clip21)"><text fill="#595959" fill-opacity="1" font-family="Calibri,Calibri_MSFontService,sans-serif" font-style="normal" font-variant="normal" font-weight="400" font-stretch="normal" font-size="41" text-anchor="start" direction="ltr" writing-mode="lr-tb" unicode-bidi="normal" text-decoration="none" transform="matrix(6.12323e-17 -1 1 6.12323e-17 3918.84 1480)">26</text></g><g clip-path="url(#clip22)"><text fill="#595959" fill-opacity="1" font-family="Calibri,Calibri_MSFontService,sans-serif" font-style="normal" font-variant="normal" font-weight="400" font-stretch="normal" font-size="41" text-anchor="start" direction="ltr" writing-mode="lr-tb" unicode-bidi="normal" text-decoration="none" transform="matrix(6.12323e-17 -1 1 6.12323e-17 3977.04 1480)">31</text></g><g clip-path="url(#clip23)"><text fill="#595959" fill-opacity="1" font-family="Calibri,Calibri_MSFontService,sans-serif" font-style="normal" font-variant="normal" font-weight="400" font-stretch="normal" font-size="41" text-anchor="start" direction="ltr" writing-mode="lr-tb" unicode-bidi="normal" text-decoration="none" transform="matrix(6.12323e-17 -1 1 6.12323e-17 4035.23 1480)">36</text></g><g clip-path="url(#clip24)"><text fill="#595959" fill-opacity="1" font-family="Calibri,Calibri_MSFontService,sans-serif" font-style="normal" font-variant="normal" font-weight="400" font-stretch="normal" font-size="41" text-anchor="start" direction="ltr" writing-mode="lr-tb" unicode-bidi="normal" text-decoration="none" transform="matrix(6.12323e-17 -1 1 6.12323e-17 4093.42 1480)">41</text></g><g clip-path="url(#clip25)"><text fill="#595959" fill-opacity="1" font-family="Calibri,Calibri_MSFontService,sans-serif" font-style="normal" font-variant="normal" font-weight="400" font-stretch="normal" font-size="41" text-anchor="start" direction="ltr" writing-mode="lr-tb" unicode-bidi="normal" text-decoration="none" transform="matrix(6.12323e-17 -1 1 6.12323e-17 4151.61 1480)">46</text></g><g clip-path="url(#clip26)"><text fill="#595959" fill-opacity="1" font-family="Calibri,Calibri_MSFontService,sans-serif" font-style="normal" font-variant="normal" font-weight="400" font-stretch="normal" font-size="41" text-anchor="start" direction="ltr" writing-mode="lr-tb" unicode-bidi="normal" text-decoration="none" transform="matrix(6.12323e-17 -1 1 6.12323e-17 4209.8 1480)">51</text></g><g clip-path="url(#clip27)"><text fill="#595959" fill-opacity="1" font-family="Calibri,Calibri_MSFontService,sans-serif" font-style="normal" font-variant="normal" font-weight="400" font-stretch="normal" font-size="41" text-anchor="start" direction="ltr" writing-mode="lr-tb" unicode-bidi="normal" text-decoration="none" transform="matrix(6.12323e-17 -1 1 6.12323e-17 4267.99 1480)">56</text></g><g clip-path="url(#clip28)"><text fill="#595959" fill-opacity="1" font-family="Calibri,Calibri_MSFontService,sans-serif" font-style="normal" font-variant="normal" font-weight="400" font-stretch="normal" font-size="41" text-anchor="start" direction="ltr" writing-mode="lr-tb" unicode-bidi="normal" text-decoration="none" transform="matrix(6.12323e-17 -1 1 6.12323e-17 4326.19 1480)">61</text></g><g clip-path="url(#clip29)"><text fill="#595959" fill-opacity="1" font-family="Calibri,Calibri_MSFontService,sans-serif" font-style="normal" font-variant="normal" font-weight="400" font-stretch="normal" font-size="41" text-anchor="start" direction="ltr" writing-mode="lr-tb" unicode-bidi="normal" text-decoration="none" transform="matrix(6.12323e-17 -1 1 6.12323e-17 4384.38 1480)">66</text></g><g clip-path="url(#clip30)"><text fill="#595959" fill-opacity="1" font-family="Calibri,Calibri_MSFontService,sans-serif" font-style="normal" font-variant="normal" font-weight="400" font-stretch="normal" font-size="41" text-anchor="start" direction="ltr" writing-mode="lr-tb" unicode-bidi="normal" text-decoration="none" transform="matrix(6.12323e-17 -1 1 6.12323e-17 4442.57 1480)">71</text></g><g clip-path="url(#clip31)"><text fill="#595959" fill-opacity="1" font-family="Calibri,Calibri_MSFontService,sans-serif" font-style="normal" font-variant="normal" font-weight="400" font-stretch="normal" font-size="41" text-anchor="start" direction="ltr" writing-mode="lr-tb" unicode-bidi="normal" text-decoration="none" transform="matrix(6.12323e-17 -1 1 6.12323e-17 4500.76 1480)">76</text></g><g clip-path="url(#clip32)"><text fill="#595959" fill-opacity="1" font-family="Calibri,Calibri_MSFontService,sans-serif" font-style="normal" font-variant="normal" font-weight="400" font-stretch="normal" font-size="41" text-anchor="start" direction="ltr" writing-mode="lr-tb" unicode-bidi="normal" text-decoration="none" transform="matrix(6.12323e-17 -1 1 6.12323e-17 4558.95 1480)">81</text></g><g clip-path="url(#clip33)"><text fill="#595959" fill-opacity="1" font-family="Calibri,Calibri_MSFontService,sans-serif" font-style="normal" font-variant="normal" font-weight="400" font-stretch="normal" font-size="41" text-anchor="start" direction="ltr" writing-mode="lr-tb" unicode-bidi="normal" text-decoration="none" transform="matrix(6.12323e-17 -1 1 6.12323e-17 4617.14 1480)">86</text></g><g clip-path="url(#clip34)"><text fill="#595959" fill-opacity="1" font-family="Calibri,Calibri_MSFontService,sans-serif" font-style="normal" font-variant="normal" font-weight="400" font-stretch="normal" font-size="41" text-anchor="start" direction="ltr" writing-mode="lr-tb" unicode-bidi="normal" text-decoration="none" transform="matrix(6.12323e-17 -1 1 6.12323e-17 4675.33 1480)">91</text></g><g clip-path="url(#clip35)"><text fill="#595959" fill-opacity="1" font-family="Calibri,Calibri_MSFontService,sans-serif" font-style="normal" font-variant="normal" font-weight="400" font-stretch="normal" font-size="41" text-anchor="start" direction="ltr" writing-mode="lr-tb" unicode-bidi="normal" text-decoration="none" transform="matrix(6.12323e-17 -1 1 6.12323e-17 4733.53 1480)">96</text></g><g clip-path="url(#clip36)"><text fill="#595959" fill-opacity="1" font-family="Calibri,Calibri_MSFontService,sans-serif" font-style="normal" font-variant="normal" font-weight="400" font-stretch="normal" font-size="41" text-anchor="start" direction="ltr" writing-mode="lr-tb" unicode-bidi="normal" text-decoration="none" transform="matrix(6.12323e-17 -1 1 6.12323e-17 4791.72 1501)">101</text></g><g clip-path="url(#clip37)"><text fill="#595959" fill-opacity="1" font-family="Calibri,Calibri_MSFontService,sans-serif" font-style="normal" font-variant="normal" font-weight="400" font-stretch="normal" font-size="41" text-anchor="start" direction="ltr" writing-mode="lr-tb" unicode-bidi="normal" text-decoration="none" transform="matrix(6.12323e-17 -1 1 6.12323e-17 4849.91 1501)">106</text></g><g clip-path="url(#clip38)"><text fill="#595959" fill-opacity="1" font-family="Calibri,Calibri_MSFontService,sans-serif" font-style="normal" font-variant="normal" font-weight="400" font-stretch="normal" font-size="41" text-anchor="start" direction="ltr" writing-mode="lr-tb" unicode-bidi="normal" text-decoration="none" transform="matrix(6.12323e-17 -1 1 6.12323e-17 4908.1 1501)">111</text></g><g clip-path="url(#clip39)"><text fill="#595959" fill-opacity="1" font-family="Calibri,Calibri_MSFontService,sans-serif" font-style="normal" font-variant="normal" font-weight="400" font-stretch="normal" font-size="41" text-anchor="start" direction="ltr" writing-mode="lr-tb" unicode-bidi="normal" text-decoration="none" transform="matrix(6.12323e-17 -1 1 6.12323e-17 4966.29 1501)">116</text></g><g clip-path="url(#clip40)"><text fill="#595959" fill-opacity="1" font-family="Calibri,Calibri_MSFontService,sans-serif" font-style="normal" font-variant="normal" font-weight="400" font-stretch="normal" font-size="41" text-anchor="start" direction="ltr" writing-mode="lr-tb" unicode-bidi="normal" text-decoration="none" transform="matrix(6.12323e-17 -1 1 6.12323e-17 5024.48 1501)">121</text></g><g clip-path="url(#clip41)"><text fill="#595959" fill-opacity="1" font-family="Calibri,Calibri_MSFontService,sans-serif" font-style="normal" font-variant="normal" font-weight="400" font-stretch="normal" font-size="41" text-anchor="start" direction="ltr" writing-mode="lr-tb" unicode-bidi="normal" text-decoration="none" transform="matrix(6.12323e-17 -1 1 6.12323e-17 5082.68 1501)">126</text></g><g clip-path="url(#clip42)"><text fill="#595959" fill-opacity="1" font-family="Calibri,Calibri_MSFontService,sans-serif" font-style="normal" font-variant="normal" font-weight="400" font-stretch="normal" font-size="41" text-anchor="start" direction="ltr" writing-mode="lr-tb" unicode-bidi="normal" text-decoration="none" transform="matrix(6.12323e-17 -1 1 6.12323e-17 5140.87 1501)">131</text></g><g clip-path="url(#clip43)"><text fill="#595959" fill-opacity="1" font-family="Calibri,Calibri_MSFontService,sans-serif" font-style="normal" font-variant="normal" font-weight="400" font-stretch="normal" font-size="41" text-anchor="start" direction="ltr" writing-mode="lr-tb" unicode-bidi="normal" text-decoration="none" transform="matrix(6.12323e-17 -1 1 6.12323e-17 5199.06 1501)">136</text></g><g clip-path="url(#clip44)"><text fill="#595959" fill-opacity="1" font-family="Calibri,Calibri_MSFontService,sans-serif" font-style="normal" font-variant="normal" font-weight="400" font-stretch="normal" font-size="41" text-anchor="start" direction="ltr" writing-mode="lr-tb" unicode-bidi="normal" text-decoration="none" transform="matrix(6.12323e-17 -1 1 6.12323e-17 5257.25 1501)">141</text></g><g clip-path="url(#clip45)"><text fill="#595959" fill-opacity="1" font-family="Calibri,Calibri_MSFontService,sans-serif" font-style="normal" font-variant="normal" font-weight="400" font-stretch="normal" font-size="41" text-anchor="start" direction="ltr" writing-mode="lr-tb" unicode-bidi="normal" text-decoration="none" transform="matrix(6.12323e-17 -1 1 6.12323e-17 5315.44 1501)">146</text></g><g clip-path="url(#clip46)"><text fill="#595959" fill-opacity="1" font-family="Calibri,Calibri_MSFontService,sans-serif" font-style="normal" font-variant="normal" font-weight="400" font-stretch="normal" font-size="41" text-anchor="start" direction="ltr" writing-mode="lr-tb" unicode-bidi="normal" text-decoration="none" transform="matrix(6.12323e-17 -1 1 6.12323e-17 5373.63 1501)">151</text></g><g clip-path="url(#clip47)"><text fill="#595959" fill-opacity="1" font-family="Calibri,Calibri_MSFontService,sans-serif" font-style="normal" font-variant="normal" font-weight="400" font-stretch="normal" font-size="41" text-anchor="start" direction="ltr" writing-mode="lr-tb" unicode-bidi="normal" text-decoration="none" transform="matrix(6.12323e-17 -1 1 6.12323e-17 5431.82 1501)">156</text></g><g clip-path="url(#clip48)"><text fill="#595959" fill-opacity="1" font-family="Calibri,Calibri_MSFontService,sans-serif" font-style="normal" font-variant="normal" font-weight="400" font-stretch="normal" font-size="41" text-anchor="start" direction="ltr" writing-mode="lr-tb" unicode-bidi="normal" text-decoration="none" transform="matrix(6.12323e-17 -1 1 6.12323e-17 5490.02 1501)">161</text></g><g clip-path="url(#clip49)"><text fill="#595959" fill-opacity="1" font-family="Calibri,Calibri_MSFontService,sans-serif" font-style="normal" font-variant="normal" font-weight="400" font-stretch="normal" font-size="41" text-anchor="start" direction="ltr" writing-mode="lr-tb" unicode-bidi="normal" text-decoration="none" transform="matrix(6.12323e-17 -1 1 6.12323e-17 5548.21 1501)">166</text></g><g clip-path="url(#clip50)"><text fill="#595959" fill-opacity="1" font-family="Calibri,Calibri_MSFontService,sans-serif" font-style="normal" font-variant="normal" font-weight="400" font-stretch="normal" font-size="41" text-anchor="start" direction="ltr" writing-mode="lr-tb" unicode-bidi="normal" text-decoration="none" transform="matrix(6.12323e-17 -1 1 6.12323e-17 5606.4 1501)">171</text></g><g clip-path="url(#clip51)"><text fill="#595959" fill-opacity="1" font-family="Calibri,Calibri_MSFontService,sans-serif" font-style="normal" font-variant="normal" font-weight="400" font-stretch="normal" font-size="41" text-anchor="start" direction="ltr" writing-mode="lr-tb" unicode-bidi="normal" text-decoration="none" transform="matrix(6.12323e-17 -1 1 6.12323e-17 5664.59 1501)">176</text></g><g clip-path="url(#clip52)"><text fill="#595959" fill-opacity="1" font-family="Calibri,Calibri_MSFontService,sans-serif" font-style="normal" font-variant="normal" font-weight="400" font-stretch="normal" font-size="41" text-anchor="start" direction="ltr" writing-mode="lr-tb" unicode-bidi="normal" text-decoration="none" transform="matrix(6.12323e-17 -1 1 6.12323e-17 5722.78 1501)">181</text></g><g clip-path="url(#clip53)"><text fill="#595959" fill-opacity="1" font-family="Calibri,Calibri_MSFontService,sans-serif" font-style="normal" font-variant="normal" font-weight="400" font-stretch="normal" font-size="41" text-anchor="start" direction="ltr" writing-mode="lr-tb" unicode-bidi="normal" text-decoration="none" transform="matrix(6.12323e-17 -1 1 6.12323e-17 5780.97 1501)">186</text></g><g clip-path="url(#clip54)"><text fill="#595959" fill-opacity="1" font-family="Calibri,Calibri_MSFontService,sans-serif" font-style="normal" font-variant="normal" font-weight="400" font-stretch="normal" font-size="41" text-anchor="start" direction="ltr" writing-mode="lr-tb" unicode-bidi="normal" text-decoration="none" transform="matrix(6.12323e-17 -1 1 6.12323e-17 5839.17 1501)">191</text></g><g clip-path="url(#clip55)"><text fill="#595959" fill-opacity="1" font-family="Calibri,Calibri_MSFontService,sans-serif" font-style="normal" font-variant="normal" font-weight="400" font-stretch="normal" font-size="41" text-anchor="start" direction="ltr" writing-mode="lr-tb" unicode-bidi="normal" text-decoration="none" transform="matrix(6.12323e-17 -1 1 6.12323e-17 5897.36 1501)">196</text></g><g clip-path="url(#clip56)"><text fill="#595959" fill-opacity="1" font-family="Calibri,Calibri_MSFontService,sans-serif" font-style="normal" font-variant="normal" font-weight="400" font-stretch="normal" font-size="41" text-anchor="start" direction="ltr" writing-mode="lr-tb" unicode-bidi="normal" text-decoration="none" transform="matrix(6.12323e-17 -1 1 6.12323e-17 5955.55 1501)">201</text></g><g clip-path="url(#clip57)"><text fill="#595959" fill-opacity="1" font-family="Calibri,Calibri_MSFontService,sans-serif" font-style="normal" font-variant="normal" font-weight="400" font-stretch="normal" font-size="41" text-anchor="start" direction="ltr" writing-mode="lr-tb" unicode-bidi="normal" text-decoration="none" transform="matrix(6.12323e-17 -1 1 6.12323e-17 6013.74 1501)">206</text></g><g clip-path="url(#clip58)"><text fill="#595959" fill-opacity="1" font-family="Calibri,Calibri_MSFontService,sans-serif" font-style="normal" font-variant="normal" font-weight="400" font-stretch="normal" font-size="41" text-anchor="start" direction="ltr" writing-mode="lr-tb" unicode-bidi="normal" text-decoration="none" transform="matrix(6.12323e-17 -1 1 6.12323e-17 6071.93 1501)">211</text></g><g clip-path="url(#clip59)"><text fill="#595959" fill-opacity="1" font-family="Calibri,Calibri_MSFontService,sans-serif" font-style="normal" font-variant="normal" font-weight="400" font-stretch="normal" font-size="41" text-anchor="start" direction="ltr" writing-mode="lr-tb" unicode-bidi="normal" text-decoration="none" transform="matrix(6.12323e-17 -1 1 6.12323e-17 6130.12 1501)">216</text></g><g clip-path="url(#clip60)"><text fill="#595959" fill-opacity="1" font-family="Calibri,Calibri_MSFontService,sans-serif" font-style="normal" font-variant="normal" font-weight="400" font-stretch="normal" font-size="41" text-anchor="start" direction="ltr" writing-mode="lr-tb" unicode-bidi="normal" text-decoration="none" transform="matrix(6.12323e-17 -1 1 6.12323e-17 6188.32 1501)">221</text></g><g clip-path="url(#clip61)"><text fill="#595959" fill-opacity="1" font-family="Calibri,Calibri_MSFontService,sans-serif" font-style="normal" font-variant="normal" font-weight="400" font-stretch="normal" font-size="41" text-anchor="start" direction="ltr" writing-mode="lr-tb" unicode-bidi="normal" text-decoration="none" transform="matrix(6.12323e-17 -1 1 6.12323e-17 6246.51 1501)">226</text></g><g clip-path="url(#clip62)"><text fill="#595959" fill-opacity="1" font-family="Calibri,Calibri_MSFontService,sans-serif" font-style="normal" font-variant="normal" font-weight="700" font-stretch="normal" font-size="46" text-anchor="start" direction="ltr" writing-mode="lr-tb" unicode-bidi="normal" text-decoration="none" transform="matrix(6.12323e-17 -1 1 6.12323e-17 3492.19 1050)">Normalized score</text></g><g clip-path="url(#clip63)"><text fill="#595959" fill-opacity="1" font-family="Calibri,Calibri_MSFontService,sans-serif" font-style="normal" font-variant="normal" font-weight="700" font-stretch="normal" font-size="46" text-anchor="start" direction="ltr" writing-mode="lr-tb" unicode-bidi="normal" text-decoration="none" transform="matrix(1 0 0 1 4854.79 1558)">Episode</text></g><g clip-path="url(#clip64)"><text fill="#595959" fill-opacity="1" font-family="Calibri,Calibri_MSFontService,sans-serif" font-style="normal" font-variant="normal" font-weight="700" font-stretch="normal" font-size="64" text-anchor="start" direction="ltr" writing-mode="lr-tb" unicode-bidi="normal" text-decoration="none" transform="matrix(1 0 0 1 4772.85 283)">Score</text></g><g clip-path="url(#clip65)"><path d="M4490.5 1666.5 4578.5 1666.5" stroke="#4472C4" stroke-width="11.4583" stroke-linecap="round" stroke-linejoin="round" stroke-miterlimit="10" stroke-opacity="1" fill="none" fill-rule="evenodd"/></g><g clip-path="url(#clip66)"><text fill="#595959" fill-opacity="1" font-family="Calibri,Calibri_MSFontService,sans-serif" font-style="normal" font-variant="normal" font-weight="400" font-stretch="normal" font-size="41" text-anchor="start" direction="ltr" writing-mode="lr-tb" unicode-bidi="normal" text-decoration="none" transform="matrix(1 0 0 1 4587.3 1676)">Intrinsic score</text></g><g clip-path="url(#clip67)"><path d="M4880.5 1666.5 4968.5 1666.5" stroke="#ED7D31" stroke-width="9.16667" stroke-linecap="round" stroke-linejoin="round" stroke-miterlimit="10" stroke-opacity="1" fill="none" fill-rule="evenodd"/></g><g clip-path="url(#clip68)"><text fill="#595959" fill-opacity="1" font-family="Calibri,Calibri_MSFontService,sans-serif" font-style="normal" font-variant="normal" font-weight="400" font-stretch="normal" font-size="41" text-anchor="start" direction="ltr" writing-mode="lr-tb" unicode-bidi="normal" text-decoration="none" transform="matrix(1 0 0 1 4977.61 1676)">Extrinsic score</text></g><rect x="3391.5" y="188.5" width="2910" height="1544" stroke="#D9D9D9" stroke-width="3.4375" stroke-linecap="butt" stroke-linejoin="round" stroke-miterlimit="10" stroke-opacity="1" fill="none"/></g></svg>